<svg width="1400" height="556" viewBox="0 0 1400 556" fill="none" xmlns="http://www.w3.org/2000/svg">
<g opacity="0.6">
<mask id="mask0" mask-type="alpha" maskUnits="userSpaceOnUse" x="0" y="-1" width="1400" height="557">
<rect y="-1" width="1400" height="557" fill="url(#paint0_radial)"/>
</mask>
<g mask="url(#mask0)">
<path d="M844.696 229.234L844.707 226.068L844.777 220.789L845.021 212.335L845.428 203.862L845.999 195.361L846.734 186.822L847.634 178.236L848.7 169.594L849.933 160.885L851.334 152.1L852.906 143.229L854.649 134.263L856.566 125.191L858.659 116.004L860.931 106.691L863.383 97.2418L866.018 87.6459L868.84 77.8926L871.852 67.9711L875.056 57.8705L878.457 47.5794L882.058 37.0865L885.863 26.3801L889.877 15.4482L894.103 4.27876L898.547 -7.14063L903.214 -18.8227L908.108 -30.7804L913.236 -43.0271L918.603 -55.5763L924.214 -68.4419L930.076 -81.6384L936.196 -95.1802L942.581 -109.083L945.874 -116.174L949.236 -123.361L952.668 -130.646L956.171 -138.031L959.745 -145.518L963.392 -153.109L967.113 -160.807L970.908 -168.612L974.779 -176.529L978.727 -184.558L982.753 -192.702L986.858 -200.963L991.042 -209.343L995.309 -217.846L999.657 -226.472L1004.09 -235.226L1008.61 -244.108L1013.21 -253.122L1017.9 -262.269L1022.68 -271.554L1027.55 -280.977L1032.51 -290.542L1037.57 -300.251L1042.72 -310.108L1047.96 -320.114L1053.3 -330.273L1058.74 -340.588L1064.28 -351.06L1069.92 -361.694L1075.67 -372.492L1081.52 -383.458L1087.48 -394.593L1093.54 -405.902L1099.71 -417.387M844.696 229.234V240.361M844.696 229.234L844.707 232.401L844.777 237.68L845.021 246.134L845.428 254.607L845.999 263.108L846.734 271.647L847.634 280.233L848.7 288.876L849.933 297.584L851.334 306.369L852.906 315.24L854.649 324.206L856.566 333.278L858.659 342.465L860.931 351.778L863.383 361.227L866.018 370.823L868.84 380.577L871.852 390.498L875.056 400.599L878.457 410.89L882.058 421.383L885.863 432.089L889.877 443.021L894.103 454.19L898.547 465.61L903.214 477.292L908.108 489.25L913.236 501.496L918.603 514.045L924.214 526.911L930.076 540.107L936.196 553.649L942.581 567.552L945.874 574.643L949.236 581.83L952.668 589.115L956.171 596.5L959.745 603.987L963.392 611.578L967.113 619.276L970.908 627.082L974.779 634.998L978.727 643.027L982.753 651.171L986.858 659.432L991.042 667.812L995.309 676.315L999.657 684.942L1004.09 693.695L1008.61 702.577L1013.21 711.591L1017.9 720.738L1022.68 730.023L1027.55 739.446L1032.51 749.011L1037.57 758.721L1042.72 768.577L1047.96 778.584L1053.3 788.743L1058.74 799.057L1064.28 809.53L1069.92 820.164L1075.67 830.962L1081.52 841.927L1087.48 853.062L1093.54 864.371L1249.14 1147.91M1275.44 229.234L1275.42 225.491L1275.32 219.251L1274.97 209.272L1274.39 199.301L1273.57 189.342L1272.53 179.399L1271.25 169.476L1269.73 159.578L1267.99 149.707L1266.02 139.869L1263.82 130.066L1261.39 120.304L1258.73 110.586L1255.85 100.916L1252.74 91.2972L1249.41 81.7344L1245.85 72.2313L1242.07 62.7915L1238.08 53.419L1233.86 44.1175L1229.43 34.8908L1224.79 25.7426L1219.93 16.6765L1214.86 7.6964L1209.58 -1.19433L1204.1 -9.99191L1198.41 -18.6929L1192.52 -27.2937L1186.43 -35.7909L1180.14 -44.1811L1173.66 -52.4607L1166.99 -60.6267L1160.13 -68.6755L1153.08 -76.604L1145.84 -84.4089L1138.43 -92.0872L1130.84 -99.6357L1123.07 -107.051L1115.13 -114.331L1107.03 -121.472L1098.75 -128.472L1090.32 -135.326L1081.73 -142.034L1072.98 -148.592L1064.08 -154.997L1055.04 -161.246L1045.85 -167.339L1036.52 -173.27L1027.05 -179.04L1017.45 -184.644L1007.72 -190.081L997.868 -195.349L987.893 -200.446L977.801 -205.368L967.597 -210.116L957.283 -214.685L946.865 -219.076L936.347 -223.285L925.732 -227.312L915.025 -231.154L904.231 -234.81L893.354 -238.279L882.398 -241.559L871.367 -244.648L860.267 -247.547L849.101 -250.252L837.875 -252.764L826.591 -255.082L815.257 -257.203L803.874 -259.129L792.449 -260.857L780.986 -262.387L769.49 -263.718L757.965 -264.85L746.416 -265.783L734.847 -266.516L723.264 -267.048L711.67 -267.38L700.071 -267.512L688.472 -267.443L676.876 -267.173L665.289 -266.702L653.715 -266.032L642.16 -265.161L630.627 -264.09L619.121 -262.821L607.647 -261.352L596.21 -259.686L584.814 -257.822L573.464 -255.761L562.164 -253.504L550.919 -251.052L539.734 -248.406L528.613 -245.568L517.561 -242.537L506.581 -239.316L495.679 -235.906L484.858 -232.308L474.124 -228.523L463.481 -224.553L452.932 -220.401L442.482 -216.066L432.136 -211.552L421.897 -206.859L411.77 -201.991L401.758 -196.948L391.867 -191.733L382.099 -186.348L372.458 -180.795L362.95 -175.077L353.577 -169.195L344.343 -163.153L335.252 -156.951L326.308 -150.594L317.513 -144.084L308.873 -137.422L300.39 -130.613L292.068 -123.658L283.91 -116.561L275.919 -109.323L268.099 -101.95L260.452 -94.442L252.983 -86.8037L245.693 -79.0377L238.586 -71.1472L231.665 -63.1353L224.932 -55.0054L218.391 -46.7606L212.043 -38.4043L209.802 -35.3645L207.587 -32.3107L203.234 -26.1622L194.841 -13.7054L186.871 -1.04454L179.331 11.8099L172.226 24.847L165.564 38.0558L159.35 51.4253L153.588 64.9442L148.284 78.6011L143.442 92.3847L139.067 106.283L137.055 113.272L135.161 120.285L133.385 127.321L131.729 134.378L130.191 141.456L128.772 148.552L127.473 155.664L126.294 162.792L125.235 169.935L124.297 177.089L123.479 184.255L122.782 191.43L122.206 198.613L121.751 205.802L121.417 212.996L121.204 220.194L121.112 227.394L121.142 234.594L121.293 241.793L121.565 248.989L121.958 256.181L122.472 263.367L123.108 270.547L123.864 277.717L124.741 284.877L125.738 292.026L126.855 299.162L128.093 306.282L129.45 313.387L130.927 320.474L132.523 327.542L134.238 334.589L136.072 341.614L138.023 348.615L140.093 355.592L142.279 362.541L147.002 376.355L152.188 390.046L157.834 403.601L163.933 417.01L170.481 430.261L177.473 443.343L184.902 456.245L192.763 468.956L201.048 481.466L209.752 493.764L218.866 505.84L228.382 517.683L238.294 529.284L248.592 540.633L259.268 551.72L270.313 562.536L281.717 573.072L293.471 583.319L305.566 593.269L317.991 602.913L330.735 612.242L343.788 621.25L357.139 629.929L370.776 638.27L384.689 646.268L391.745 650.136L398.865 653.916L406.048 657.606L413.293 661.207L420.598 664.716L427.96 668.134L435.38 671.46L442.855 674.693L450.383 677.833L457.964 680.878L465.595 683.828L473.275 686.683L481.002 689.442L488.775 692.104L496.592 694.668L504.451 697.135L512.351 699.504L520.29 701.774L528.266 703.945L536.279 706.015L544.325 707.986L552.403 709.856L560.512 711.626L568.65 713.293L576.816 714.859L585.007 716.324L593.221 717.685L601.458 718.944L609.715 720.101L617.991 721.154L626.283 722.104L634.591 722.95L642.912 723.693L651.244 724.331L659.587 724.866L667.938 725.296L676.295 725.623L684.656 725.845L693.021 725.962L701.386 725.976L709.751 725.885L718.114 725.69L726.472 725.39L734.825 724.986L743.169 724.478L751.505 723.866L759.829 723.15L768.14 722.331L776.437 721.407L784.717 720.38L792.979 719.251L801.221 718.018L809.441 716.682L817.638 715.244L825.81 713.704L833.955 712.062L842.072 710.319L850.159 708.474L858.213 706.529L866.234 704.484L874.22 702.339L882.169 700.094L890.079 697.751L897.949 695.309L905.776 692.769L913.561 690.132L921.3 687.398L928.992 684.568L936.636 681.642L944.229 678.621L951.771 675.505L959.26 672.296L966.694 668.994L974.071 665.599L981.391 662.113L988.651 658.536L995.85 654.868L1002.99 651.112L1010.06 647.266L1017.07 643.333L1030.88 635.206L1044.41 626.738L1057.65 617.936L1070.59 608.808L1083.22 599.36L1095.52 589.602L1107.49 579.541L1119.11 569.185L1130.39 558.544L1141.29 547.626L1151.83 536.44L1161.99 524.996L1171.75 513.304L1181.12 501.373L1190.08 489.213L1198.63 476.835L1206.76 464.249L1214.46 451.465L1221.73 438.495L1228.55 425.349L1234.94 412.038L1240.87 398.573L1246.34 384.966L1251.36 371.229L1255.91 357.372L1258 350.402L1259.99 343.407L1261.85 336.388L1263.6 329.346L1265.22 322.283L1266.73 315.201L1268.12 308.101L1269.39 300.984L1270.53 293.852L1271.56 286.707L1272.47 279.549L1273.26 272.381L1273.92 265.204L1274.47 258.019L1274.89 250.829L1275.19 243.633L1275.38 236.435L1275.44 229.234ZM1275.44 229.234L1228.51 229.235M1275.44 229.234L1328.15 229.235M1328.15 229.235L1328.13 225.7L1328.09 222.166L1327.94 215.098L1327.69 208.033L1327.33 200.97L1326.88 193.913L1326.32 186.861L1325.66 179.816L1324.9 172.779L1324.04 165.751L1323.08 158.734L1322.02 151.727L1320.85 144.733L1319.59 137.753L1318.23 130.788L1315.2 116.905L1311.78 103.095L1307.96 89.3668L1303.75 75.7282L1299.15 62.1886L1294.16 48.7566L1288.79 35.4409L1283.04 22.25L1276.91 9.1925L1270.4 -3.72324L1263.53 -16.4889L1256.3 -29.0962L1248.7 -41.5371L1240.76 -53.8035L1232.46 -65.8876L1223.81 -77.7815L1214.83 -89.4777L1205.52 -100.968L1195.88 -112.246L1185.91 -123.304L1175.64 -134.135L1165.06 -144.732L1154.17 -155.088L1142.99 -165.196L1131.53 -175.05L1119.79 -184.644L1107.77 -193.971L1095.49 -203.025L1082.96 -211.801L1070.17 -220.292L1057.15 -228.494L1043.9 -236.401L1030.42 -244.008L1016.73 -251.31L1002.83 -258.303L995.813 -261.682L988.743 -264.981L981.626 -268.201L974.464 -271.341L967.257 -274.4L960.007 -277.379L952.715 -280.275L945.382 -283.09L938.009 -285.822L930.597 -288.471L923.148 -291.036L915.663 -293.518L908.142 -295.916L900.588 -298.229L893.002 -300.457L885.384 -302.599L877.735 -304.656L870.058 -306.627L862.353 -308.512L854.622 -310.31L846.866 -312.021L839.085 -313.645L831.282 -315.182L823.458 -316.631L815.613 -317.992L807.75 -319.265L799.869 -320.449L791.971 -321.545L784.058 -322.552L776.132 -323.47L768.193 -324.3L760.243 -325.04L752.283 -325.691L744.314 -326.252L736.337 -326.724L728.355 -327.106L720.368 -327.399L712.377 -327.602L704.384 -327.716L696.389 -327.739L688.396 -327.673L680.403 -327.518L672.414 -327.272L664.429 -326.937L656.449 -326.513L648.476 -325.998L640.511 -325.395L632.555 -324.702L624.61 -323.92L616.677 -323.049L608.757 -322.088L600.851 -321.039L592.961 -319.902L585.088 -318.676L577.234 -317.361L569.398 -315.959L561.584 -314.469L553.791 -312.891L546.022 -311.226L538.277 -309.473L530.559 -307.634L522.867 -305.709L515.203 -303.697L507.569 -301.6L499.965 -299.417L492.394 -297.149L484.855 -294.796L477.352 -292.358L469.883 -289.837L462.452 -287.232L455.058 -284.544L447.704 -281.773L440.39 -278.92L433.117 -275.985L425.887 -272.968L418.701 -269.871L411.56 -266.693L404.466 -263.435L397.418 -260.098L390.419 -256.683L376.571 -249.617L362.931 -242.242L349.506 -234.564L336.306 -226.587L323.339 -218.316L310.614 -209.757L298.139 -200.915L285.921 -191.796L273.969 -182.406L262.291 -172.75L250.893 -162.836L239.784 -152.669L228.97 -142.256L218.458 -131.603L208.256 -120.718L198.369 -109.608L188.805 -98.2787L179.568 -86.7388L170.666 -74.9954L162.104 -63.056L153.887 -50.9282L146.021 -38.6199L138.511 -26.1391L131.361 -13.4938L124.577 -0.691935L118.162 12.258L112.121 25.3477L106.458 38.5687L101.176 51.9127L96.2785 65.3708L91.7691 78.9345L87.6505 92.5952L83.9253 106.344L80.5959 120.172L77.6645 134.07L76.3486 141.042L75.1329 148.029L74.0176 155.029L73.0028 162.041L72.0888 169.063L71.2756 176.096L70.5634 183.137L69.9524 190.185L69.4425 197.24L69.034 204.299L68.7268 211.363L68.5209 218.43L68.4166 225.498L68.4138 232.567L68.5124 239.636L68.7124 246.702L69.0138 253.766L69.4166 260.826L69.9206 267.881L70.5259 274.93L71.2323 281.971L72.0398 289.004L72.4513 292.285L72.8848 295.563L73.8177 302.112L75.9465 315.18L78.425 328.199L81.2517 341.162L84.425 354.062L87.9433 366.893L91.8045 379.646L96.0064 392.314L100.547 404.891L105.423 417.369L110.632 429.741L116.171 442.001L122.038 454.141L128.228 466.155L134.738 478.036L141.565 489.777L148.705 501.372L156.154 512.813L163.907 524.096L171.96 535.212L180.309 546.157L188.95 556.924L197.876 567.507L207.083 577.899L216.567 588.096L226.321 598.091L236.34 607.879L246.619 617.454L257.151 626.811L267.931 635.944L278.954 644.849L290.211 653.521L301.698 661.954L313.408 670.144L325.334 678.087L337.47 685.777L349.808 693.211L362.342 700.383L375.065 707.292L387.969 713.931L401.048 720.299L414.294 726.39L427.699 732.202L441.256 737.732L454.958 742.976L468.796 747.931L475.764 750.3L482.764 752.595L489.793 754.817L496.852 756.965L503.939 759.038L511.053 761.038L518.194 762.963L525.36 764.812L532.551 766.587L539.764 768.286L547 769.909L554.257 771.457L561.534 772.928L568.831 774.323L576.146 775.641L583.478 776.883L590.826 778.047L598.189 779.135L605.566 780.145L612.956 781.078L620.358 781.933L627.771 782.711L635.194 783.411L642.626 784.033L650.066 784.577L657.512 785.044L664.965 785.432L672.421 785.742L679.882 785.974L687.345 786.127L694.809 786.202L702.275 786.2L709.739 786.119L717.202 785.96L724.662 785.722L732.119 785.406L739.571 785.013L747.017 784.541L754.456 783.991L761.887 783.363L769.309 782.658L776.722 781.874L784.123 781.013L791.512 780.075L798.889 779.059L806.251 777.966L813.598 776.796L820.928 775.549L828.242 774.225L835.537 772.825L842.813 771.348L850.068 769.795L857.303 768.167L864.515 766.462L871.703 764.682L878.868 762.827L886.006 760.897L893.119 758.892L900.204 756.813L907.261 754.66L914.288 752.433L921.285 750.132L935.184 745.312L948.951 740.201L962.576 734.804L976.053 729.123L989.373 723.16L1002.53 716.921L1015.52 710.407L1028.32 703.623L1040.95 696.572L1053.38 689.259L1065.61 681.687L1077.63 673.861L1089.44 665.786L1101.03 657.465L1112.4 648.903L1123.53 640.106L1134.42 631.078L1145.07 621.824L1155.47 612.349L1165.61 602.659L1175.49 592.76L1185.1 582.656L1194.43 572.354L1203.49 561.858L1212.26 551.176L1220.75 540.314L1228.94 529.276L1236.83 518.07L1244.42 506.701L1251.71 495.177L1258.68 483.503L1265.34 471.686L1271.68 459.733L1277.69 447.651L1283.39 435.445L1288.75 423.124L1293.78 410.695L1298.48 398.163L1302.84 385.536L1306.86 372.821L1310.53 360.026L1313.87 347.157L1316.85 334.222L1319.49 321.228L1321.79 308.182L1323.73 295.092L1325.32 281.965L1326.55 268.809L1327.44 255.63L1327.97 242.436L1328.15 229.235ZM1328.15 229.235L1387.16 229.235M1387.16 229.235L1387.14 224.688L1387.08 220.142L1386.86 211.05L1386.49 201.962L1385.98 192.881L1385.32 183.807L1384.51 174.742L1383.56 165.69L1382.46 156.65L1381.22 147.627L1379.82 138.62L1378.29 129.633L1376.61 120.668L1374.78 111.725L1372.81 102.807L1370.7 93.9169L1368.44 85.0551L1366.04 76.2242L1363.5 67.4258L1360.81 58.6619L1357.99 49.9344L1355.02 41.2452L1351.92 32.5959L1348.67 23.9887L1345.29 15.4252L1341.76 6.90723L1338.1 -1.56332L1334.31 -9.98457L1330.38 -18.3549L1326.31 -26.6724L1322.11 -34.9354L1317.78 -43.142L1313.31 -51.2906L1308.71 -59.3793L1303.99 -67.4065L1299.13 -75.3705L1294.15 -83.2695L1289.04 -91.1019L1283.8 -98.866L1278.44 -106.56L1272.95 -114.183L1267.35 -121.732L1261.62 -129.206L1255.77 -136.605L1249.8 -143.925L1243.71 -151.165L1237.51 -158.324L1231.2 -165.401L1224.76 -172.394L1211.57 -186.121L1197.93 -199.493L1190.96 -206.043L1183.87 -212.5L1176.69 -218.863L1169.4 -225.131L1162.01 -231.301L1154.52 -237.374L1146.94 -243.347L1139.26 -249.219L1131.48 -254.989L1123.61 -260.656L1115.66 -266.218L1107.61 -271.675L1099.48 -277.025L1091.26 -282.267L1082.95 -287.4L1074.57 -292.422L1066.1 -297.334L1057.56 -302.133L1048.94 -306.819L1040.24 -311.391L1031.48 -315.847L1022.64 -320.188L1013.73 -324.411L1004.75 -328.516L995.711 -332.502L986.606 -336.368L977.44 -340.114L968.215 -343.738L958.932 -347.241L949.594 -350.62L940.201 -353.876L930.758 -357.007L921.264 -360.013L911.724 -362.894L902.137 -365.649L892.507 -368.276L882.836 -370.776L873.126 -373.149L863.378 -375.393L853.595 -377.508L843.779 -379.493L833.931 -381.349L824.055 -383.075L814.152 -384.67L804.225 -386.134L794.275 -387.467L784.304 -388.668L774.315 -389.738L764.31 -390.676L754.29 -391.481L744.259 -392.155L734.218 -392.696L724.169 -393.104L714.115 -393.379L704.057 -393.522L693.998 -393.532L683.94 -393.409L673.886 -393.153L663.836 -392.765L653.793 -392.244L643.761 -391.591L633.739 -390.805L623.732 -389.887L613.74 -388.837L603.767 -387.655L593.813 -386.342L583.882 -384.898L573.975 -383.322L564.095 -381.616L554.243 -379.78L544.422 -377.814L534.634 -375.718L524.881 -373.493L515.165 -371.14L505.487 -368.659L495.851 -366.051L486.258 -363.315L476.711 -360.453L467.21 -357.466L457.759 -354.353L448.359 -351.116L439.012 -347.755L429.721 -344.272L420.486 -340.665L411.311 -336.938L402.198 -333.09L393.147 -329.121L384.161 -325.034L375.243 -320.829L366.393 -316.506L357.614 -312.067L348.908 -307.512L340.276 -302.843L331.72 -298.061L323.243 -293.166L314.846 -288.16L306.53 -283.044L298.298 -277.818L290.151 -272.484L282.091 -267.043L274.12 -261.497L266.239 -255.845L258.451 -250.091L250.756 -244.234L243.157 -238.276L235.654 -232.218L228.251 -226.063L220.947 -219.81L213.745 -213.461L206.647 -207.018L192.766 -193.854L179.316 -180.329L166.309 -166.456L159.975 -159.391L153.756 -152.244L147.652 -145.016L141.666 -137.708L135.799 -130.321L130.052 -122.858L124.426 -115.32L118.922 -107.708L113.542 -100.025L108.286 -92.2709L103.156 -84.4486L98.1534 -76.5595L93.2785 -68.6052L88.5325 -60.5873L83.9165 -52.5077L79.4315 -44.368L75.0785 -36.17L70.8583 -27.9154L66.7719 -19.6059L62.8202 -11.2434L59.0039 -2.82966L55.324 5.63362L51.7811 14.1445L48.376 22.7013L45.1096 31.3022L41.9823 39.9452L38.9951 48.6285L36.1483 57.3504L33.4428 66.109L30.879 74.9023L28.4575 83.7285L26.1788 92.5858L24.0434 101.472L22.0517 110.386L20.2043 119.325L18.5014 128.287L16.9434 137.271L15.5307 146.275L14.2636 155.296L13.1423 164.333L12.1671 173.384L11.3382 182.446L10.6557 191.519L10.1199 200.6L9.73075 209.687L9.48843 218.778L9.39296 227.871L9.44436 236.964L9.64264 246.056L9.98774 255.145L10.4796 264.227L11.1181 273.303L11.9031 282.369L12.8344 291.423L13.9119 300.465L15.1353 309.491L16.5044 318.5L18.0188 327.49L19.6782 336.459L21.4823 345.405L23.4308 354.326L25.5231 363.221L27.7588 372.087L30.1376 380.923L32.6587 389.726L35.3218 398.496L38.1262 407.229L41.0714 415.924L44.1567 424.579L47.3815 433.193L50.7451 441.763L54.2467 450.288L57.8856 458.766L61.6611 467.194L65.5723 475.573L69.6183 483.898L73.7985 492.169L78.1117 500.384L82.5572 508.542L87.134 516.64L91.8411 524.676L96.6775 532.65L101.642 540.559L106.734 548.401L111.952 556.176L117.295 563.88L122.762 571.514L128.351 579.074L132.227 584.179L136.158 589.249L144.187 599.282L152.435 609.168L160.898 618.904L169.574 628.486L178.459 637.91L187.55 647.173L196.843 656.27L206.333 665.199L216.019 673.955L225.895 682.535L235.957 690.936L246.203 699.155L256.627 707.188L267.226 715.032L277.995 722.683L288.93 730.14L300.027 737.399L311.282 744.457L322.69 751.311L334.246 757.959L345.946 764.397L357.785 770.625L369.759 776.638L381.863 782.434L394.092 788.012L406.441 793.369L418.905 798.503L431.48 803.412L444.161 808.094L456.942 812.547L469.818 816.77L482.784 820.76L495.836 824.516L508.968 828.037L522.175 831.322L535.451 834.368L548.792 837.175L562.192 839.742L575.645 842.067L589.147 844.15L602.693 845.99L616.276 847.586L629.891 848.938L643.533 850.044L657.198 850.906L670.878 851.521L684.569 851.89L698.266 852.014L711.962 851.891L725.653 851.522L739.334 850.906L752.998 850.045L766.64 848.939L780.256 847.588L793.839 845.992L807.384 844.152L820.886 842.07L834.34 839.744L847.74 837.178L861.08 834.371L874.357 831.325L887.564 828.041L900.696 824.521L913.747 820.764L926.714 816.775L939.591 812.552L952.372 808.1L965.052 803.418L977.627 798.509L990.092 793.375L1002.44 788.018L1014.67 782.441L1026.77 776.644L1038.75 770.631L1050.59 764.405L1062.29 757.966L1073.84 751.319L1085.25 744.465L1096.51 737.407L1107.6 730.149L1118.54 722.692L1129.31 715.041L1139.91 707.197L1150.33 699.164L1160.58 690.946L1170.64 682.545L1180.52 673.965L1190.2 665.209L1199.69 656.28L1208.99 647.183L1218.08 637.921L1226.96 628.497L1235.64 618.915L1244.1 609.179L1252.35 599.293L1260.38 589.261L1268.19 579.086L1275.77 568.773L1283.12 558.326L1290.24 547.748L1297.13 537.045L1303.78 526.22L1310.19 515.277L1316.36 504.222L1322.29 493.058L1327.97 481.789L1333.4 470.421L1338.58 458.957L1343.5 447.403L1348.17 435.762L1352.59 424.039L1356.74 412.24L1360.64 400.368L1364.27 388.429L1367.64 376.426L1370.74 364.366L1373.58 352.252L1376.15 340.089L1378.46 327.883L1380.49 315.637L1382.26 303.357L1383.75 291.049L1384.98 278.715L1385.93 266.362L1386.61 253.995L1387.02 241.617L1387.16 229.235ZM1387.16 229.235L1526.52 229.234M1228.51 229.235L1228.49 225.7L1228.39 219.809L1228.02 210.388L1227.42 200.975L1226.58 191.575L1225.49 182.193L1224.16 172.832L1222.6 163.496L1220.79 154.191L1218.75 144.919L1216.47 135.687L1213.95 126.496L1211.2 117.353L1208.21 108.261L1205 99.2234L1201.55 90.2454L1197.87 81.3308L1193.96 72.4836L1189.83 63.7079L1185.47 55.0076L1180.9 46.3868L1176.1 37.8493L1171.08 29.399L1165.85 21.0398L1160.4 12.7756L1154.75 4.60996L1148.89 -3.45323L1142.82 -11.4104L1136.55 -19.2578L1130.07 -26.992L1123.41 -34.6093L1116.54 -42.1064L1109.49 -49.4798L1102.25 -56.7262L1094.83 -63.8421L1087.22 -70.8245L1079.44 -77.6702L1071.48 -84.3759L1063.36 -90.9386L1055.06 -97.3554L1046.61 -103.623L1037.99 -109.74L1029.23 -115.701L1020.31 -121.506L1011.24 -127.15L1002.03 -132.632L992.682 -137.95L983.2 -143.099L973.588 -148.079L963.851 -152.887L953.993 -157.521L944.018 -161.979L933.931 -166.258L923.736 -170.357L913.439 -174.274L903.044 -178.007L892.555 -181.554L881.978 -184.914L871.317 -188.085L860.578 -191.066L849.764 -193.855L838.881 -196.452L827.934 -198.854L816.928 -201.061L805.868 -203.073L794.759 -204.887L783.606 -206.503L772.414 -207.92L761.188 -209.139L749.933 -210.157L738.655 -210.975L727.359 -211.593L716.049 -212.009L704.731 -212.225L693.411 -212.239L682.092 -212.052L670.781 -211.664L659.482 -211.074L648.201 -210.285L636.943 -209.294L625.713 -208.104L614.516 -206.715L603.357 -205.126L592.241 -203.34L581.174 -201.357L570.16 -199.177L559.204 -196.802L548.312 -194.233L537.489 -191.47L526.738 -188.516L516.066 -185.372L505.477 -182.038L494.975 -178.517L484.566 -174.811L474.255 -170.92L464.046 -166.846L453.944 -162.592L443.953 -158.16L434.078 -153.55L424.323 -148.767L414.693 -143.811L405.193 -138.685L395.826 -133.391L386.597 -127.932L377.51 -122.31L368.569 -116.528L359.779 -110.588L351.143 -104.494L342.665 -98.2472L334.349 -91.8511L326.199 -85.3087L318.219 -78.623L310.412 -71.7968L302.782 -64.8335L295.332 -57.7361L288.065 -50.508L280.986 -43.1523L274.097 -35.6724L267.401 -28.0718L260.902 -20.3538L254.602 -12.5221L248.504 -4.58023L242.612 3.46832L236.927 11.6197L231.452 19.8703L226.19 28.2163L221.144 36.654L216.315 45.1794L211.705 53.7888L210.256 56.6022L208.83 59.424L206.049 65.0919L200.771 76.5211L195.876 88.0679L191.367 99.7233L187.248 111.478L183.523 123.324L180.193 135.251L177.262 147.25L174.732 159.313L172.604 171.429L170.881 183.59L169.564 195.786L168.653 208.007L168.15 220.245L168.054 232.49L168.366 244.732L169.086 256.962L170.213 269.171L171.747 281.35L173.685 293.488L176.027 305.577L178.771 317.607L181.914 329.569L185.454 341.454L189.389 353.252L193.716 364.956L198.43 376.554L203.529 388.04L209.009 399.403L214.865 410.635L221.093 421.728L227.688 432.673L234.645 443.461L241.959 454.085L249.623 464.535L257.633 474.805L265.982 484.885L274.663 494.769L283.67 504.449L292.996 513.917L302.634 523.166L312.576 532.188L322.815 540.978L333.343 549.528L344.152 557.832L355.233 565.883L366.577 573.674L378.177 581.201L390.024 588.457L402.107 595.437L414.418 602.135L426.947 608.546L439.686 614.666L452.623 620.489L465.749 626.011L479.054 631.227L492.528 636.135L506.159 640.729L519.939 645.007L533.856 648.965L540.863 650.823L547.899 652.601L554.965 654.296L562.058 655.91L569.178 657.442L576.322 658.891L583.49 660.258L590.68 661.542L597.89 662.743L605.12 663.86L612.368 664.894L619.632 665.844L626.912 666.71L634.205 667.492L641.51 668.19L648.827 668.803L656.152 669.332L663.487 669.776L670.827 670.135L678.173 670.41L685.523 670.599L692.875 670.704L700.229 670.724L707.582 670.659L714.933 670.509L722.281 670.274L729.624 669.954L736.961 669.55L744.291 669.061L751.612 668.487L758.923 667.829L766.222 667.087L773.508 666.26L780.78 665.349L788.035 664.355L795.274 663.276L802.493 662.114L809.693 660.869L816.871 659.541L824.027 658.131L831.158 656.637L838.264 655.062L845.343 653.404L852.393 651.665L859.414 649.845L866.404 647.944L880.285 643.901L894.027 639.538L907.618 634.86L921.047 629.87L934.306 624.572L947.383 618.97L960.268 613.067L972.952 606.87L985.424 600.382L997.676 593.609L1009.7 586.555L1021.48 579.226L1033.01 571.628L1044.29 563.767L1055.3 555.648L1066.03 547.279L1076.48 538.664L1086.64 529.812L1096.51 520.728L1106.06 511.421L1115.3 501.896L1124.22 492.161L1132.82 482.224L1141.08 472.092L1149 461.774L1156.57 451.277L1163.79 440.609L1170.65 429.778L1177.15 418.793L1183.28 407.662L1189.03 396.394L1194.41 384.998L1199.41 373.481L1204.02 361.854L1208.24 350.125L1212.07 338.302L1215.51 326.396L1218.55 314.415L1221.18 302.368L1223.42 290.265L1225.25 278.116L1226.67 265.928L1227.69 253.713L1228.3 241.478L1228.51 229.235ZM1228.51 229.235L1186.88 229.234M1373.02 -412.165L1312.07 -347.87L1302.53 -337.733L1293.15 -327.753L1283.94 -317.927L1274.89 -308.254L1266 -298.729L1257.27 -289.352L1248.69 -280.118L1240.27 -271.026L1231.99 -262.073L1223.87 -253.257L1215.89 -244.574L1208.05 -236.023L1200.36 -227.602L1192.81 -219.307L1185.39 -211.137L1178.11 -203.089L1170.96 -195.161L1163.94 -187.351L1157.06 -179.657L1150.3 -172.076L1143.66 -164.607L1137.15 -157.248L1130.76 -149.995L1124.5 -142.848L1118.35 -135.805L1106.39 -122.02L1094.9 -108.625L1083.84 -95.6059L1073.21 -82.9477L1063 -70.6363L1053.19 -58.6582L1043.78 -47L1034.75 -35.6488L1026.09 -24.5919L1017.8 -13.817L1009.87 -3.31228L1002.28 6.93412L995.026 16.9334L988.104 26.6969L981.505 36.2352L975.22 45.5591L969.242 54.6789L963.566 63.6047L958.185 72.3465L953.092 80.914L948.283 89.3166L943.751 97.5637L939.492 105.665L935.502 113.628L931.775 121.463L928.307 129.178L925.095 136.783L922.135 144.284L919.423 151.691L916.958 159.012L914.735 166.255L912.753 173.427L911.01 180.538L909.502 187.595L908.23 194.605L907.19 201.577L905.807 215.436L905.462 222.339L905.369 226.218L905.347 229.235L905.369 232.251L905.462 236.13L905.807 243.033L907.19 256.892L908.23 263.864L909.502 270.875L911.01 277.931L912.753 285.042L914.735 292.215L916.958 299.458L919.423 306.779L922.135 314.185L925.095 321.687L928.307 329.291L931.775 337.006L935.502 344.841L939.492 352.805L943.751 360.906L948.283 369.153L953.092 377.555L958.185 386.123L963.566 394.865L969.242 403.79L975.22 412.91L981.505 422.234L988.104 431.773L995.026 441.536L1002.28 451.535L1009.87 461.782L1017.8 472.286L1026.09 483.061L1034.75 494.118L1043.78 505.469L1053.19 517.128L1063 529.106L1073.21 541.417L1083.84 554.075L1094.9 567.095L1106.39 580.489L1118.35 594.274L1124.5 601.318L1130.76 608.465L1137.15 615.717L1143.66 623.077L1150.3 630.546L1157.06 638.126L1163.94 645.821L1170.96 653.63L1178.11 661.558L1185.39 669.606L1192.81 677.776L1200.36 686.071L1208.05 694.493L1215.89 703.044L1223.87 711.726L1231.99 720.543L1240.27 729.496L1248.69 738.588L1257.27 747.821L1266 757.199L1274.89 766.723L1283.94 776.396L1293.15 786.222L1302.53 796.202L1312.07 806.34L1477.31 979.331M698.274 -406.546V1195.63M405.434 240.361V229.235H-22.6579M551.856 240.361V229.235L551.844 226.068L551.774 220.789L551.53 212.335L551.123 203.862L550.552 195.361L549.817 186.822L548.917 178.236L547.851 169.594L546.618 160.885L545.217 152.1L543.645 143.229L541.902 134.263L539.985 125.191L537.892 116.004L535.62 106.691L533.168 97.2418L530.533 87.6459L527.711 77.8926L524.699 67.9711L521.495 57.8705L518.094 47.5794L514.493 37.0865L510.688 26.3801L506.674 15.4482L502.448 4.27876L498.004 -7.14063L493.337 -18.8227L488.443 -30.7804L483.315 -43.0271L477.948 -55.5763L472.337 -68.4419L466.475 -81.6384L460.355 -95.1802L453.97 -109.083L450.677 -116.174L447.315 -123.361L443.883 -130.646L440.38 -138.031L436.806 -145.518L433.159 -153.109L429.438 -160.807L425.643 -168.612L421.772 -176.529L417.824 -184.558L413.798 -192.702L409.694 -200.963L405.509 -209.343L401.242 -217.846L396.894 -226.472L392.461 -235.226L387.944 -244.108L383.34 -253.122L378.649 -262.269L373.869 -271.554L368.999 -280.977L364.038 -290.542L358.983 -300.251L353.835 -310.108L348.591 -320.114L343.249 -330.273L337.809 -340.588L332.269 -351.06L326.627 -361.694L320.882 -372.492L315.032 -383.458L309.076 -394.593L303.011 -405.902L296.837 -417.387M698.274 229.235V240.361M698.274 229.235H687.135M698.274 229.235V-416.829M698.274 229.235V1201.91M991.117 229.235H406.078M992.581 229.234L990.08 225.423L974.954 219.247L965.194 216.893L953.418 214.632L939.713 212.481L932.169 211.452L924.183 210.457L915.77 209.497L906.946 208.575L897.728 207.691L888.132 206.848L878.177 206.048L867.883 205.291L857.268 204.58L846.352 203.915L835.156 203.299L823.701 202.731L812.01 202.213L800.103 201.747L788.004 201.332L775.735 200.97L763.32 200.662L750.782 200.407L738.145 200.207L725.432 200.062L712.668 199.972L699.877 199.937L687.082 199.957L674.309 200.033L661.581 200.164L648.923 200.35L636.358 200.591L623.909 200.886L611.602 201.235L599.458 201.636L587.501 202.09L575.754 202.595L564.238 203.15L552.975 203.755L541.987 204.408L531.295 205.107L520.918 205.853L510.877 206.642L501.189 207.475L491.875 208.348L482.95 209.261L474.433 210.211L466.338 211.198L458.683 212.219L451.48 213.271L444.743 214.354L432.72 216.603L422.704 218.946L417.467 220.461L413.071 222.003L406.846 225.145L404.256 227.936L404.357 230.739L407.766 233.924L416.902 237.822L428.004 240.829L434.776 242.282L442.336 243.697L450.661 245.068L459.727 246.391L469.507 247.664L479.97 248.881L491.087 250.04L502.823 251.136L515.143 252.167L528.012 253.129L541.389 254.02L555.236 254.837L562.322 255.217L569.51 255.577L576.794 255.917L584.169 256.238L591.63 256.539L599.17 256.819L606.784 257.078L614.467 257.317L622.212 257.534L630.015 257.731L637.868 257.906L645.766 258.06L653.704 258.192L661.675 258.302L669.674 258.391L677.693 258.458L685.729 258.503L693.773 258.525L701.821 258.527L709.867 258.507L717.903 258.465L725.925 258.4L733.926 258.314L741.901 258.206L749.843 258.077L757.746 257.926L765.605 257.753L773.414 257.559L781.166 257.344L788.857 257.108L796.48 256.851L804.029 256.574L811.499 256.275L818.885 255.957L826.18 255.619L833.38 255.261L840.478 254.883L847.471 254.487L861.115 253.637L874.273 252.714L886.905 251.722L898.972 250.661L910.439 249.537L921.272 248.352L931.438 247.11L940.906 245.815L949.649 244.47L957.64 243.079L964.856 241.647L976.876 238.676L985.566 235.592L988.628 234.019L992.141 230.835M996.992 229.234L996.623 226.308L995.314 223L993.22 219.905L990.297 216.836L986.552 213.802L981.997 210.811L970.509 204.994L963.609 202.183L955.962 199.448L947.59 196.797L938.518 194.238L928.77 191.777L918.374 189.421L907.359 187.177L895.756 185.051L883.598 183.05L870.919 181.178L857.755 179.441L844.142 177.845L837.179 177.101L830.118 176.393L822.965 175.722L815.725 175.089L808.401 174.495L801.001 173.938L793.528 173.421L785.988 172.943L778.386 172.504L770.728 172.105L763.019 171.747L755.265 171.428L747.47 171.151L739.641 170.914L731.783 170.718L723.902 170.564L716.002 170.45L708.09 170.378L700.171 170.348L692.25 170.359L684.334 170.411L676.428 170.505L668.537 170.64L660.667 170.816L652.823 171.033L645.011 171.291L637.237 171.589L629.506 171.929L621.823 172.308L614.193 172.728L606.623 173.187L599.118 173.686L591.682 174.224L584.321 174.8L577.04 175.415L569.844 176.068L562.739 176.757L555.728 177.484L542.014 179.047L528.739 180.75L515.94 182.59L503.654 184.561L491.915 186.657L480.757 188.873L470.21 191.203L460.304 193.64L451.068 196.177L442.527 198.806L434.704 201.521L421.303 207.178L411.014 213.082L407.075 216.107L403.954 219.168L401.661 222.258L400.202 225.367L399.582 228.487L399.8 231.609L400.859 234.725L402.753 237.825L405.479 240.901L409.027 243.944L412.689 246.502L416.933 249.025L427.131 253.945L439.537 258.664L446.538 260.936L454.051 263.143L462.062 265.281L470.554 267.346L479.511 269.333L488.913 271.238L498.741 273.058L508.977 274.788L519.597 276.426L530.582 277.967L541.909 279.41L553.554 280.75L565.494 281.984L577.705 283.112L590.161 284.13L602.838 285.036L615.709 285.828L628.748 286.505L641.929 287.065L655.225 287.507L668.608 287.831L682.052 288.035L695.529 288.119L709.011 288.084L722.472 287.928L735.883 287.653L749.218 287.259L762.449 286.747L775.549 286.117L788.492 285.372L801.251 284.512L813.8 283.54L826.113 282.457L838.167 281.265L849.935 279.967L861.394 278.567L872.521 277.065L883.293 275.466L893.688 273.773L903.684 271.99L913.262 270.119L922.402 268.164L931.086 266.131L939.295 264.022L947.013 261.843L954.224 259.597L967.069 254.924L977.723 250.042L986.102 244.99L992.136 239.81L995.776 234.544L996.916 230.563M996.992 229.234L991.114 229.235M996.992 229.234L1014.86 229.235M1014.86 229.235L1014.75 226.069L1014.42 222.905L1013.1 216.594L1010.91 210.317L1007.85 204.093L999.156 191.871L993.551 185.908L987.126 180.065L979.898 174.358L971.889 168.804L963.119 163.417L953.614 158.214L943.399 153.207L932.504 148.412L920.958 143.842L908.794 139.508L896.045 135.424L882.746 131.6L868.936 128.048L861.85 126.376L854.651 124.776L847.343 123.249L839.932 121.795L832.422 120.416L824.819 119.112L817.128 117.885L809.355 116.735L801.504 115.663L793.582 114.67L785.594 113.757L777.545 112.924L769.441 112.172L761.288 111.501L753.09 110.911L744.855 110.404L736.587 109.98L728.293 109.638L719.978 109.379L711.648 109.204L703.308 109.112L694.965 109.103L686.625 109.178L678.292 109.336L669.973 109.578L661.674 109.902L653.401 110.31L645.158 110.8L636.953 111.372L628.79 112.026L620.675 112.762L612.614 113.578L604.613 114.475L596.676 115.451L588.811 116.507L581.021 117.641L573.313 118.852L565.691 120.14L558.162 121.503L550.73 122.942L543.4 124.454L536.178 126.039L529.068 127.696L522.076 129.423L508.464 133.085L495.379 137.013L482.858 141.197L470.935 145.626L459.643 150.288L449.014 155.168L439.078 160.254L429.861 165.532L421.39 170.987L413.688 176.603L406.776 182.366L395.399 194.266L390.965 200.37L387.384 206.554L384.667 212.801L382.821 219.093L381.851 225.414L381.76 231.746L382.548 238.07L384.213 244.37L386.75 250.628L390.153 256.826L393.776 262.112L398.028 267.33L408.385 277.519L421.136 287.309L428.378 292.029L436.178 296.62L444.52 301.071L453.386 305.373L462.758 309.518L472.617 313.497L482.942 317.303L493.712 320.926L504.905 324.359L516.498 327.596L528.467 330.63L540.786 333.453L553.431 336.062L566.376 338.45L579.593 340.612L593.055 342.544L606.735 344.242L620.604 345.702L627.6 346.342L634.633 346.921L641.699 347.439L648.794 347.897L655.915 348.293L663.057 348.628L670.218 348.901L677.393 349.112L684.579 349.261L691.773 349.348L698.969 349.373L706.165 349.336L713.357 349.237L720.542 349.076L727.714 348.853L734.872 348.568L742.011 348.221L749.127 347.813L756.216 347.344L763.276 346.814L770.302 346.223L777.291 345.571L791.143 344.088L804.803 342.367L818.243 340.413L831.435 338.229L844.351 335.819L856.966 333.19L869.253 330.345L881.186 327.292L892.741 324.036L903.894 320.583L914.623 316.942L924.904 313.12L934.716 309.125L944.04 304.964L952.857 300.647L961.146 296.182L968.893 291.579L982.693 281.995L994.143 271.976L1003.15 261.604L1009.63 250.964L1011.91 245.571L1013.55 240.145L1014.53 234.696L1014.86 229.235ZM1014.86 229.235L1045.43 229.235M1186.88 229.234L1186.87 226.43L1186.83 223.625L1186.68 218.017L1186.08 206.808L1185.07 195.619L1183.66 184.456L1181.85 173.331L1179.65 162.252L1177.04 151.228L1174.04 140.269L1170.65 129.382L1166.87 118.579L1162.7 107.866L1158.15 97.2534L1153.22 86.7498L1147.92 76.3637L1142.24 66.1036L1136.2 55.9781L1129.8 45.9955L1123.04 36.164L1115.93 26.4917L1108.47 16.9867L1100.68 7.65665L1092.56 -1.49069L1084.11 -10.4476L1075.34 -19.207L1066.26 -27.7614L1056.88 -36.1039L1047.2 -44.2276L1037.24 -52.1257L1026.99 -59.7918L1016.48 -67.2195L1005.7 -74.4027L994.668 -81.3355L983.391 -88.0122L971.88 -94.4272L960.143 -100.575L948.19 -106.451L936.03 -112.051L923.675 -117.368L911.134 -122.4L898.417 -127.142L885.535 -131.59L872.499 -135.741L859.319 -139.59L846.006 -143.136L832.571 -146.374L819.026 -149.302L805.381 -151.918L791.647 -154.22L777.837 -156.206L763.961 -157.874L757.002 -158.588L750.031 -159.222L743.049 -159.776L736.058 -160.25L729.059 -160.644L722.054 -160.957L715.044 -161.19L708.03 -161.342L701.015 -161.414L693.998 -161.405L686.983 -161.316L679.97 -161.146L672.961 -160.896L665.957 -160.565L658.96 -160.154L651.971 -159.662L644.991 -159.091L638.023 -158.439L624.124 -156.896L610.287 -155.034L596.522 -152.856L582.841 -150.362L569.255 -147.556L555.776 -144.438L542.414 -141.013L529.181 -137.282L516.087 -133.249L503.144 -128.917L490.361 -124.289L477.75 -119.37L465.321 -114.164L453.083 -108.674L441.048 -102.905L429.226 -96.8631L417.625 -90.5519L406.255 -83.9769L395.127 -77.1435L384.248 -70.0575L373.628 -62.7246L363.276 -55.1511L353.201 -47.3429L343.41 -39.3067L333.911 -31.0489L324.713 -22.5765L315.824 -13.8964L307.249 -5.01583L298.997 4.05791L291.075 13.3174L283.488 22.7549L276.243 32.3628L269.347 42.133L262.804 52.0575L256.62 62.1282L250.8 72.3366L245.35 82.6745L240.273 93.1332L235.574 103.704L231.256 114.379L227.323 125.148L223.779 136.003L220.626 146.935L217.868 157.935L215.505 168.993L213.54 180.102L211.976 191.25L210.812 202.431L210.05 213.633L209.691 224.848L209.735 236.067L210.182 247.28L211.031 258.478L212.283 269.652L213.935 280.793L215.986 291.891L218.435 302.938L221.28 313.923L224.519 324.839L228.148 335.677L232.164 346.426L236.566 357.079L241.347 367.626L246.506 378.059L252.038 388.369L257.937 398.548L264.199 408.588L270.82 418.479L277.793 428.215L280.349 431.628L282.949 435.021L288.277 441.741L299.442 454.914L311.269 467.714L323.737 480.117L336.827 492.104L350.517 503.655L357.58 509.261L364.784 514.75L372.126 520.122L379.604 525.372L387.214 530.5L394.953 535.503L402.818 540.378L410.805 545.125L418.912 549.74L427.134 554.223L435.469 558.571L443.913 562.782L452.463 566.855L461.114 570.787L469.864 574.578L478.709 578.226L487.645 581.729L496.668 585.086L505.775 588.295L514.961 591.355L524.224 594.265L533.559 597.023L542.962 599.629L552.43 602.081L561.958 604.379L571.543 606.521L581.18 608.506L590.866 610.334L600.596 612.004L610.367 613.515L620.175 614.867L630.015 616.059L639.883 617.09L649.775 617.96L659.688 618.669L669.616 619.217L679.556 619.602L689.505 619.826L699.456 619.888L709.408 619.788L719.354 619.525L729.292 619.101L739.217 618.515L749.125 617.767L759.012 616.859L768.874 615.789L778.706 614.559L788.506 613.17L798.267 611.621L807.987 609.913L817.662 608.047L827.287 606.025L836.859 603.846L846.373 601.511L855.826 599.022L865.213 596.38L874.531 593.585L883.776 590.64L892.944 587.544L902.031 584.3L911.034 580.908L919.948 577.37L928.771 573.688L937.498 569.863L946.125 565.897L954.65 561.791L963.068 557.548L971.377 553.168L979.572 548.653L987.651 544.006L995.609 539.229L1003.44 534.323L1011.15 529.29L1018.73 524.133L1026.18 518.853L1033.49 513.454L1040.66 507.936L1047.69 502.303L1061.31 490.699L1074.32 478.661L1086.72 466.21L1098.46 453.365L1109.55 440.148L1119.95 426.582L1129.65 412.688L1134.24 405.625L1138.64 398.489L1142.86 391.283L1146.9 384.01L1150.75 376.672L1154.41 369.274L1157.88 361.817L1161.16 354.305L1164.25 346.742L1167.15 339.129L1169.85 331.471L1172.36 323.771L1174.67 316.031L1176.78 308.256L1178.7 300.447L1180.41 292.609L1181.92 284.745L1183.24 276.858L1184.35 268.951L1185.26 261.027L1185.97 253.091L1186.48 245.144L1186.78 237.191L1186.88 229.234ZM1186.88 229.234L1150.15 229.235M1045.43 229.235L1045.36 225.643L1044.97 219.66L1043.59 210.11L1041.3 200.61L1038.1 191.187L1034.01 181.864L1029.02 172.666L1023.16 163.618L1016.44 154.744L1008.88 146.066L1000.49 137.609L991.31 129.395L981.351 121.444L970.643 113.779L959.215 106.419L947.095 99.384L934.318 92.6927L920.916 86.3627L913.992 83.3385L906.925 80.4107L899.72 77.5814L892.381 74.8525L884.915 72.2258L877.324 69.7028L869.616 67.2855L861.794 64.9753L853.864 62.7737L845.831 60.6823L837.7 58.7024L829.477 56.8354L821.167 55.0824L812.776 53.4446L804.309 51.9231L795.772 50.5189L787.171 49.233L778.51 48.0662L769.797 47.0192L761.036 46.0928L752.234 45.2875L743.396 44.604L734.528 44.0425L725.636 43.6036L716.726 43.2876L707.804 43.0946L698.876 43.0248L689.947 43.0782L681.024 43.2545L672.112 43.554L663.217 43.9764L654.346 44.5213L645.504 45.1885L636.696 45.9774L627.93 46.8875L619.21 47.9183L610.542 49.0691L601.932 50.339L593.386 51.7273L584.909 53.233L576.508 54.8552L568.187 56.5928L559.952 58.4445L551.808 60.4093L543.762 62.4858L535.817 64.6726L527.981 66.9683L520.256 69.3713L512.65 71.8801L505.166 74.493L497.81 77.2083L490.587 80.0241L483.501 82.9387L476.558 85.9501L463.115 92.2551L450.294 98.9227L438.13 105.935L426.654 113.274L415.896 120.919L405.886 128.851L396.649 137.049L388.211 145.49L380.593 154.153L373.815 163.015L367.896 172.052L362.851 181.24L358.694 190.556L355.435 199.973L353.084 209.468L351.645 219.016L351.124 228.59L351.522 238.166L352.837 247.719L355.066 257.222L356.378 261.516L357.878 265.792L361.433 274.281L365.723 282.672L370.74 290.946L376.472 299.086L382.906 307.073L390.029 314.89L397.825 322.52L406.277 329.946L415.366 337.153L425.073 344.124L435.377 350.844L446.255 357.298L457.682 363.473L469.635 369.355L482.088 374.931L495.012 380.189L508.38 385.117L522.163 389.705L529.2 391.868L536.33 393.943L543.548 395.927L550.85 397.821L558.233 399.622L565.693 401.331L573.225 402.945L580.825 404.465L588.489 405.889L596.214 407.216L603.993 408.447L611.825 409.579L619.703 410.614L627.625 411.549L635.585 412.384L643.579 413.12L651.603 413.755L659.653 414.29L667.724 414.723L675.811 415.055L683.911 415.286L692.018 415.415L700.129 415.443L708.239 415.369L716.343 415.193L724.438 414.916L732.518 414.538L740.58 414.058L748.618 413.477L756.629 412.796L764.608 412.015L772.551 411.134L780.454 410.153L788.311 409.074L796.12 407.897L803.875 406.622L811.572 405.25L819.207 403.782L826.777 402.219L834.276 400.561L841.701 398.81L849.048 396.967L856.313 395.031L863.491 393.006L870.579 390.891L877.573 388.687L891.263 384.021L904.532 379.016L917.351 373.684L929.692 368.037L941.527 362.087L952.831 355.847L963.579 349.331L973.749 342.552L983.316 335.526L992.262 328.268L1000.57 320.793L1008.21 313.119L1015.18 305.262L1021.45 297.238L1027.02 289.066L1031.87 280.764L1035.99 272.349L1039.38 263.839L1042.02 255.255L1043.91 246.613L1045.05 237.934L1045.43 229.235ZM1045.43 229.235L1117.94 229.235M1117.94 229.235L1117.92 226.188L1117.85 223.141L1117.59 217.05L1116.56 204.885L1114.83 192.761L1112.42 180.697L1109.32 168.712L1105.55 156.828L1101.11 145.063L1096 133.436L1090.24 121.967L1083.83 110.675L1076.79 99.5786L1069.12 88.6956L1060.85 78.044L1051.97 67.6417L1042.51 57.5056L1032.49 47.6524L1021.91 38.0984L1010.8 28.8593L999.18 19.9504L987.06 11.3863L974.465 3.18112L961.414 -4.65158L947.93 -12.0989L934.035 -19.1486L926.94 -22.5207L919.751 -25.7891L912.47 -28.9524L905.102 -32.0094L897.648 -34.9587L890.112 -37.7992L882.497 -40.5297L874.806 -43.149L867.043 -45.6562L859.21 -48.0501L851.31 -50.3298L843.348 -52.4943L835.326 -54.5428L827.247 -56.4743L819.116 -58.2881L810.934 -59.9835L802.706 -61.5598L794.435 -63.0163L786.124 -64.3523L777.778 -65.5674L769.398 -66.6611L760.989 -67.6329L752.555 -68.4824L744.098 -69.2093L735.622 -69.8132L727.13 -70.2939L718.627 -70.6512L710.116 -70.8848L701.599 -70.995L693.081 -70.9811L684.566 -70.8439L676.056 -70.583L667.555 -70.1987L659.067 -69.691L650.595 -69.0601L642.142 -68.3064L633.713 -67.4301L625.31 -66.4315L616.938 -65.3113L608.598 -64.0696L600.296 -62.7071L592.034 -61.2243L583.816 -59.6219L575.645 -57.9005L567.525 -56.0608L559.458 -54.1036L551.449 -52.0297L543.5 -49.8399L535.615 -47.5351L527.797 -45.1163L520.049 -42.5845L512.375 -39.9407L504.777 -37.186L497.259 -34.3215L489.823 -31.3486L482.474 -28.2682L475.213 -25.0817L468.044 -21.7906L460.971 -18.3959L453.994 -14.8993L440.347 -7.60576L427.125 0.0778949L414.349 8.13924L402.041 16.5649L390.221 25.3408L378.909 34.4527L368.123 43.8856L357.881 53.6239L348.199 63.6514L339.095 73.9519L336.008 77.6669L332.996 81.4133L327.199 88.9973L321.71 96.6974L316.533 104.507L311.673 112.421L307.133 120.431L302.917 128.531L299.029 136.715L295.472 144.976L292.248 153.306L289.361 161.7L286.813 170.149L284.607 178.647L282.742 187.187L281.223 195.762L280.049 204.365L279.221 212.989L278.741 221.626L278.609 230.269L278.825 238.911L279.388 247.545L280.298 256.164L281.555 264.761L283.157 273.329L285.103 281.859L287.392 290.347L290.021 298.783L292.989 307.162L296.292 315.476L299.929 323.719L303.896 331.884L308.19 339.963L312.806 347.951L317.743 355.84L322.995 363.624L328.558 371.297L334.427 378.853L340.598 386.284L347.066 393.585L353.824 400.75L360.868 407.772L368.192 414.647L375.789 421.368L383.653 427.93L391.778 434.327L400.158 440.554L408.784 446.606L417.65 452.478L426.749 458.164L436.073 463.661L445.614 468.964L455.365 474.068L465.317 478.969L475.462 483.663L485.792 488.147L496.298 492.415L506.971 496.466L517.803 500.295L528.784 503.899L539.906 507.276L551.159 510.422L562.534 513.335L574.022 516.013L585.612 518.453L597.296 520.653L609.064 522.612L620.905 524.328L632.811 525.799L644.771 527.024L656.775 528.003L668.814 528.733L680.877 529.216L692.955 529.45L705.036 529.436L717.113 529.172L729.174 528.66L741.209 527.9L753.208 526.892L765.162 525.637L777.061 524.136L788.894 522.392L800.652 520.404L812.325 518.175L823.904 515.706L835.379 513L846.74 510.059L857.977 506.885L869.083 503.481L880.047 499.85L890.86 495.994L901.514 491.917L911.999 487.623L922.307 483.114L932.43 478.395L942.358 473.469L952.084 468.341L961.6 463.015L970.897 457.495L979.969 451.786L988.807 445.892L997.404 439.819L1005.75 433.572L1013.85 427.155L1021.68 420.573L1029.25 413.834L1036.54 406.941L1043.55 399.901L1050.27 392.72L1056.7 385.403L1062.84 377.957L1068.67 370.387L1074.2 362.7L1079.41 354.903L1084.31 347.002L1088.89 339.003L1093.14 330.913L1097.07 322.738L1100.67 314.487L1103.93 306.164L1106.86 297.778L1109.45 289.335L1111.69 280.842L1113.6 272.307L1115.16 263.736L1116.38 255.136L1117.24 246.514L1117.77 237.879L1117.94 229.235ZM1117.94 229.235L1150.15 229.235M1000.34 -407.511L1010.09 -403.517L1019.77 -399.397L1029.39 -395.151L1038.95 -390.781L1048.43 -386.286L1057.85 -381.668L1067.19 -376.929L1076.46 -372.068L1085.66 -367.087L1094.78 -361.987L1103.82 -356.769L1112.77 -351.434L1121.65 -345.983L1130.44 -340.417L1139.14 -334.737L1147.76 -328.945L1156.28 -323.04L1164.72 -317.026L1173.06 -310.902L1181.3 -304.671L1189.45 -298.333L1197.5 -291.889L1205.46 -285.342L1213.31 -278.691L1221.05 -271.939L1228.7 -265.087L1236.23 -258.136L1243.66 -251.088L1250.98 -243.944L1258.19 -236.705L1265.29 -229.373L1272.28 -221.95L1279.15 -214.436L1285.9 -206.834L1292.54 -199.145L1299.06 -191.37L1305.45 -183.511L1311.73 -175.569L1317.89 -167.547L1323.92 -159.446L1329.82 -151.266L1335.6 -143.011L1341.25 -134.681L1346.78 -126.279L1352.17 -117.806L1357.43 -109.263L1362.56 -100.653L1367.56 -91.9765L1372.43 -83.2361L1377.16 -74.4332L1381.75 -65.5697L1386.21 -56.6473L1390.53 -47.6678L1394.72 -38.633L1398.76 -29.5446L1402.66 -20.4046L1406.43 -11.2146L1410.05 -1.97662L1413.53 7.30753L1416.86 16.636L1420.05 26.007L1423.1 35.4186L1426.01 44.8689L1428.76 54.3561L1431.38 63.8782L1433.84 73.4333L1436.16 83.0195L1438.33 92.635L1440.36 102.278L1442.23 111.946L1443.96 121.637L1445.53 131.35L1446.96 141.083L1448.24 150.833L1449.37 160.599L1450.35 170.379L1451.18 180.17L1451.86 189.971L1452.38 199.78L1452.76 209.595L1452.99 219.414L1453.04 224.324L1453.06 229.235L1453.02 236.467L1452.9 243.698L1452.69 250.928L1452.41 258.155L1452.04 265.379L1451.59 272.6L1451.06 279.815L1450.45 287.026L1449.75 294.229L1448.98 301.426L1448.12 308.615L1447.18 315.796L1446.16 322.967L1445.06 330.128L1443.88 337.278L1442.62 344.416L1441.28 351.542L1439.85 358.654L1438.35 365.753L1436.77 372.836L1435.1 379.905L1433.36 386.956L1431.54 393.991L1429.63 401.008L1427.65 408.006L1425.59 414.985L1421.23 428.882L1416.56 442.692L1411.58 456.41L1406.29 470.029L1400.69 483.544L1394.79 496.948L1388.58 510.237L1382.08 523.404L1375.28 536.443L1368.18 549.35L1360.8 562.117L1353.13 574.74L1345.17 587.214L1336.94 599.532L1328.43 611.69L1319.64 623.682L1310.59 635.504L1301.27 647.149L1291.69 658.613L1281.85 669.891L1271.76 680.978L1261.42 691.869L1250.83 702.56L1240.01 713.046L1228.95 723.322L1217.67 733.384L1206.15 743.227L1194.42 752.848L1182.47 762.242L1170.31 771.404L1157.95 780.332L1145.39 789.021L1132.64 797.468L1119.69 805.668L1106.57 813.618L1093.26 821.315L1079.79 828.756L1066.15 835.937L1052.35 842.854L1045.39 846.214L1038.4 849.506L1031.37 852.732L1024.3 855.889L1017.19 858.979L1010.06 862.001L1002.88 864.954L995.68 867.838L988.444 870.653L981.175 873.399L973.876 876.074L966.548 878.68L959.19 881.215L951.803 883.68L944.39 886.074L936.95 888.396L929.484 890.648L921.992 892.827L914.477 894.935L906.938 896.97L899.377 898.933L891.793 900.824L884.189 902.642L876.565 904.387L868.921 906.058L861.259 907.657L853.579 909.182L845.883 910.633L838.17 912.01L830.442 913.314L822.7 914.543L814.945 915.698L807.176 916.779L799.396 917.785L791.605 918.717L783.804 919.574L775.994 920.356L768.175 921.063L760.349 921.695L752.516 922.252L744.677 922.734L736.833 923.142L728.985 923.474L721.133 923.73L713.279 923.912L705.424 924.018L697.567 924.048L689.711 924.004L681.856 923.884L674.002 923.689L666.151 923.419L658.304 923.074L650.461 922.653L642.623 922.158L634.791 921.587L626.966 920.941L619.149 920.22L611.34 919.425L603.54 918.554L595.751 917.609L587.973 916.59L580.207 915.496L572.454 914.327L564.715 913.084L556.99 911.768L549.28 910.377L541.586 908.912L533.909 907.374L526.251 905.763L518.61 904.078L510.99 902.32L503.389 900.489L495.81 898.585L488.252 896.609L480.718 894.56L473.207 892.44L465.72 890.247L458.258 887.983L450.823 885.648L443.414 883.241L436.033 880.764L428.68 878.216L421.357 875.597L414.063 872.909L406.801 870.151L399.57 867.324L392.371 864.427L385.205 861.461L378.074 858.427L370.977 855.325L363.915 852.155L356.89 848.918L349.901 845.613L342.951 842.242L329.166 835.3L315.541 828.096L302.082 820.632L288.795 812.912L275.685 804.939L262.758 796.717L250.02 788.248L237.476 779.538L225.132 770.588L212.993 761.405L201.064 751.99L189.351 742.349L177.858 732.486L166.591 722.405L155.554 712.11L144.752 701.605L134.191 690.896L123.873 679.987L113.805 668.883L103.99 657.588L94.4322 646.107L85.1364 634.446L76.1062 622.609L67.3457 610.602L58.8586 598.429L50.6486 586.096L42.7192 573.609L35.0739 560.973L31.3589 554.6L29.5284 551.401L27.7161 548.192L22.8857 539.436L18.1902 530.617L13.6306 521.738L9.20774 512.801L4.92259 503.807L0.775964 494.758L-3.23131 485.656L-7.09843 476.503L-10.8246 467.3L-14.4091 458.05L-17.8513 448.754M398.737 -408.523L388.975 -404.562L379.274 -400.474L369.637 -396.261L360.066 -391.922L350.562 -387.46L341.128 -382.874L331.765 -378.166L322.475 -373.336L313.261 -368.387L304.123 -363.317L295.064 -358.13L286.086 -352.825L277.19 -347.403L268.378 -341.867L259.652 -336.216L251.013 -330.453L242.464 -324.577L234.007 -318.591L225.641 -312.496L217.371 -306.292L209.196 -299.982L201.119 -293.565L193.141 -287.044L185.265 -280.42L177.49 -273.694L169.82 -266.868L162.256 -259.943L154.798 -252.919L147.449 -245.8L140.211 -238.586L133.083 -231.278L126.069 -223.878L119.169 -216.387L112.384 -208.808L105.717 -201.141L99.1679 -193.388L92.7386 -185.551L86.4303 -177.63L80.2443 -169.629L74.1817 -161.548L68.2438 -153.388L62.4318 -145.153L56.7468 -136.842L51.19 -128.458L45.7625 -120.003L40.4653 -111.478L35.2996 -102.885L30.2663 -94.2258L25.3665 -85.5018L20.6011 -76.7149L15.9712 -67.867L11.4775 -58.9596L7.12107 -49.9947L2.90271 -40.974L-1.17672 -31.8993L-5.11641 -22.7724L-8.91556 -13.5952L-12.5734 -4.36946L-16.0893 4.90294L-19.4624 14.2202M1526.52 229.234L1526.5 223.86L1526.44 218.485L1526.2 207.738L1525.8 196.996L1525.24 186.259L1524.52 175.531L1523.65 164.813L1522.61 154.107L1521.41 143.416L1520.06 132.742L1518.54 122.086L1516.87 111.451L1515.04 100.839L1513.05 90.2511L1510.91 79.6903L1508.6 69.1584L1506.15 58.6574L1503.53 48.1892L1500.76 37.756L1497.84 27.3598L1494.76 17.0025L1491.53 6.68617L1488.14 -3.5872L1484.6 -13.8156L1480.91 -23.9972L1477.07 -34.1299L1473.08 -44.2117L1468.94 -54.2408L1464.65 -64.2152L1460.22 -74.133L1455.63 -83.9922L1450.9 -93.791L1446.03 -103.527L1441.01 -113.2L1435.84 -122.806L1430.54 -132.344L1425.09 -141.812L1419.5 -151.209L1413.78 -160.533L1407.91 -169.781L1401.91 -178.952L1395.77 -188.045L1389.5 -197.056L1383.1 -205.986L1376.56 -214.832L1369.89 -223.592L1363.1 -232.264L1356.17 -240.848L1349.12 -249.341L1341.94 -257.741L1334.64 -266.048L1327.21 -274.259L1319.66 -282.372L1312 -290.387L1304.21 -298.302L1296.31 -306.115L1288.29 -313.825L1280.16 -321.43L1271.92 -328.928L1263.56 -336.319L1255.1 -343.601L1246.53 -350.772L1237.85 -357.831L1229.07 -364.777L1220.19 -371.609L1211.2 -378.324L1202.12 -384.922L1192.94 -391.402L1183.66 -397.762L1174.29 -404.001L1164.83 -410.117M1526.52 229.234L1526.47 237.476L1526.33 245.718L1526.1 253.958L1525.77 262.195L1525.35 270.428L1524.83 278.656L1524.22 286.879L1523.51 295.095L1522.72 303.304L1521.83 311.505L1520.84 319.696L1519.76 327.876L1518.59 336.046L1517.33 344.204L1515.97 352.348L1514.52 360.479L1512.98 368.594L1511.34 376.694L1509.61 384.777L1507.8 392.843L1505.88 400.889L1503.88 408.917L1501.79 416.924L1499.6 424.91L1497.32 432.873L1494.96 440.813L1492.5 448.73L1489.95 456.621L1487.32 464.487L1484.59 472.326L1481.77 480.137L1478.87 487.92L1475.87 495.674L1472.79 503.397L1469.62 511.089L1466.36 518.75L1463.02 526.377L1459.59 533.971L1456.07 541.53L1452.47 549.054L1448.78 556.541L1445 563.991L1441.14 571.403L1437.2 578.777L1433.17 586.111L1429.06 593.404L1424.87 600.656L1420.59 607.866L1416.24 615.033L1411.8 622.156L1407.28 629.234L1402.68 636.267L1398 643.254L1393.24 650.194L1383.48 663.93L1373.41 677.469L1363.04 690.804L1352.36 703.929L1341.39 716.839L1330.13 729.528L1318.58 741.99L1306.74 754.219L1294.64 766.21L1282.26 777.957L1269.61 789.455L1256.71 800.699L1243.55 811.684L1230.15 822.404L1216.5 832.855L1202.62 843.032L1195.59 848.016L1188.51 852.93L1181.37 857.773L1174.18 862.545L1166.93 867.245L1159.63 871.873L1152.28 876.428L1144.87 880.909L1137.42 885.317L1129.91 889.65L1122.36 893.908L1114.75 898.091L1107.11 902.197L1099.41 906.228L1091.67 910.181L1083.88 914.058L1076.05 917.856L1068.18 921.577L1060.26 925.219L1052.31 928.782L1044.31 932.265L1036.28 935.669L1028.2 938.993L1020.09 942.236L1011.95 945.398L1003.76 948.479L995.545 951.478L987.294 954.396L979.01 957.231L970.694 959.983L962.347 962.653L953.97 965.239L945.564 967.742L937.13 970.161L928.668 972.496L920.181 974.747L911.669 976.913L903.132 978.994L894.572 980.99L885.99 982.901L877.386 984.727L868.763 986.466L860.119 988.12L851.458 989.687L842.779 991.169L834.084 992.564L825.373 993.872L816.648 995.093L807.909 996.228L799.158 997.275L790.396 998.236L781.623 999.109L772.841 999.895L764.05 1000.59L755.252 1001.2L746.447 1001.73L737.637 1002.16L728.822 1002.51L720.004 1002.77L711.183 1002.94L702.361 1003.03L693.539 1003.03L684.717 1002.93L675.896 1002.76L667.078 1002.49L658.264 1002.13L649.454 1001.69L640.65 1001.16L631.852 1000.55L623.062 999.84L614.28 999.048L605.508 998.169L596.746 997.202L587.996 996.148L579.258 995.007L570.534 993.779L561.825 992.465L553.131 991.063L544.453 989.576L535.793 988.002L527.151 986.342L518.529 984.596L509.927 982.764L501.346 980.847L492.788 978.845L484.253 976.757L475.742 974.585L467.257 972.328L458.798 969.987L450.366 967.562L441.962 965.053L433.587 962.46L425.242 959.785L416.928 957.026L408.647 954.185L400.398 951.261L392.182 948.256L384.002 945.169L375.857 942.001L367.749 938.752L359.678 935.422L351.646 932.013L343.653 928.523L335.7 924.955L327.789 921.307L319.919 917.581L312.092 913.776L304.31 909.894L296.572 905.935L288.879 901.899L281.233 897.787L273.634 893.599L266.084 889.335L258.582 884.996L251.13 880.583L243.73 876.097L236.38 871.537L229.083 866.904L221.84 862.198L214.65 857.421L207.515 852.572L200.436 847.653L193.414 842.664L186.448 837.605L172.693 827.28L159.176 816.684L145.903 805.821L132.882 794.697L120.117 783.316L107.614 771.684L95.3794 759.805L83.4184 747.686L71.7365 735.331L60.3389 722.747L49.2309 709.938L38.4174 696.912L27.9034 683.673L17.6937 670.228L7.79286 656.583L-1.79461 642.744L-6.46947 635.753L-11.0644 628.717L-15.5788 621.635L-20.0122 614.509M1526.52 229.234L1800 229.234M233.15 -411.03L223.675 -404.932L214.291 -398.711L205.001 -392.369L195.807 -385.908L186.709 -379.327L177.71 -372.63L168.811 -365.816L160.015 -358.887L151.322 -351.845L142.735 -344.69L134.256 -337.425L125.885 -330.05L117.624 -322.568L109.476 -314.979L101.441 -307.285L93.5213 -299.488L85.7184 -291.588L78.0336 -283.588L70.4686 -275.489L63.0247 -267.293L55.7033 -259.001L48.506 -250.614L41.4341 -242.135L34.4889 -233.565L27.6718 -224.906L20.9842 -216.159L14.4272 -207.326L8.00217 -198.409L1.71036 -189.41L-4.44704 -180.329L-10.4688 -171.17L-16.3538 -161.933L-22.101 -152.621M1307.36 -410.115L1314.5 -403.973L1321.56 -397.76L1328.55 -391.476L1342.33 -378.701L1355.81 -365.652L1369 -352.336L1381.89 -338.758L1394.47 -324.925L1400.64 -317.915L1406.74 -310.843L1412.75 -303.71L1418.69 -296.518L1424.54 -289.266L1430.31 -281.957L1436 -274.589L1441.61 -267.166L1447.13 -259.686L1452.57 -252.151L1457.92 -244.563L1463.19 -236.921L1468.37 -229.226L1473.47 -221.481L1478.48 -213.684L1483.4 -205.838L1488.23 -197.943L1492.98 -190L1497.63 -182.009L1502.2 -173.973L1506.67 -165.891L1511.06 -157.765L1515.35 -149.595L1519.55 -141.383L1523.66 -133.129L1527.68 -124.834L1531.6 -116.5L1535.43 -108.127L1539.16 -99.7154L1542.8 -91.2672L1546.35 -82.783L1549.8 -74.2638L1553.15 -65.7104L1556.41 -57.1239L1559.57 -48.5052L1562.64 -39.8553L1565.61 -31.1752L1568.48 -22.4657L1571.25 -13.728L1573.92 -4.96304L1576.5 3.8283L1578.98 12.6449L1581.36 21.4859L1583.63 30.3503L1585.81 39.237L1587.89 48.1451L1589.87 57.0734L1591.75 66.0212L1593.53 74.9873L1595.21 83.9707L1596.79 92.9704L1598.27 101.986L1599.64 111.015L1600.92 120.058L1602.09 129.112L1603.16 138.179L1604.13 147.255L1605 156.341L1605.77 165.435L1606.43 174.535L1606.99 183.643L1607.45 192.755L1607.81 201.871L1608.07 210.991L1608.22 220.112L1608.26 224.673L1608.27 229.235L1608.18 241.232L1607.92 253.227L1607.48 265.218L1606.86 277.201L1606.06 289.176L1605.09 301.138L1603.94 313.087L1602.62 325.02L1601.12 336.934L1599.44 348.826L1597.59 360.696L1595.57 372.54L1593.37 384.356L1590.99 396.142L1588.44 407.896L1585.72 419.615L1582.83 431.297L1579.77 442.939L1576.53 454.54L1573.12 466.098L1569.54 477.609L1565.8 489.072L1561.88 500.484L1557.8 511.844L1553.55 523.149L1549.13 534.396L1544.55 545.585L1539.81 556.712L1534.9 567.775L1529.82 578.772L1524.59 589.701L1519.19 600.561L1513.64 611.348L1507.93 622.061L1502.06 632.697L1496.03 643.255L1489.85 653.733L1483.51 664.128L1477.02 674.439L1470.38 684.663L1463.59 694.798L1456.66 704.843L1449.57 714.796L1442.34 724.654L1434.96 734.415L1427.44 744.079L1419.78 753.643L1411.98 763.104L1404.04 772.462L1395.96 781.714L1387.75 790.859L1379.4 799.894L1370.92 808.819L1362.31 817.631L1353.57 826.329L1344.7 834.91L1335.71 843.374L1326.6 851.719L1317.36 859.942L1308 868.043L1298.52 876.02L1288.93 883.871L1279.22 891.594L1269.4 899.189L1259.46 906.654L1249.42 913.987L1239.27 921.187L1229.02 928.252L1218.66 935.182L1208.2 941.974L1197.64 948.628L1186.99 955.142L1176.24 961.515L1165.4 967.745L1154.46 973.832L1143.44 979.774L1132.33 985.57L1121.14 991.219L1109.86 996.721L1098.51 1002.07L1087.07 1007.27L1075.57 1012.32L1063.98 1017.22L1052.33 1021.97L1040.61 1026.56L1028.82 1030.99L1016.97 1035.27L1005.05 1039.4L993.077 1043.36L981.045 1047.17L968.959 1050.82L956.82 1054.31L944.63 1057.64L932.393 1060.8L920.11 1063.81L907.784 1066.65L895.417 1069.33L883.012 1071.85L870.571 1074.21L858.096 1076.4L845.59 1078.42L833.056 1080.28L820.496 1081.97L807.912 1083.5L795.306 1084.87L782.682 1086.06L770.041 1087.09L757.386 1087.95L744.72 1088.65L732.045 1089.18L719.363 1089.54L706.677 1089.73L693.99 1089.76L681.303 1089.62L668.62 1089.31L655.942 1088.84L643.273 1088.2L630.614 1087.39L617.968 1086.41L605.338 1085.27L592.727 1083.96L580.135 1082.49L567.567 1080.85L555.024 1079.04L542.509 1077.07L530.024 1074.93L517.572 1072.63L505.155 1070.17L492.775 1067.54L480.436 1064.75L468.139 1061.8L455.886 1058.68L443.681 1055.41L431.525 1051.97L419.421 1048.37L407.371 1044.62L395.378 1040.7L383.444 1036.63L371.57 1032.4L359.761 1028.01L348.017 1023.47L336.341 1018.78L324.736 1013.93L313.203 1008.93L301.745 1003.78L290.364 998.472L279.063 993.019L267.843 987.418L256.706 981.669L245.656 975.774L234.693 969.734L223.821 963.55L213.041 957.224L202.355 950.755L191.765 944.147L181.274 937.399L170.884 930.514L160.596 923.492L150.412 916.336L140.335 909.046L130.367 901.624L120.509 894.071L110.763 886.389L101.131 878.579L91.6159 870.643L82.2183 862.582L72.9404 854.398L63.7842 846.093L54.7513 837.668L45.8434 829.124L37.0624 820.464L28.41 811.689L19.8877 802.8L11.4973 793.8L3.24047 784.691L-4.88129 775.473L-12.8664 766.149L-20.7132 756.721M91.665 -412.215L84.5083 -406.098L77.4206 -399.909L70.4026 -393.65L56.5791 -380.922L43.0441 -367.92L29.8037 -354.649L16.8637 -341.116L4.23007 -327.327L-1.97011 -320.338L-8.0916 -313.287L-14.1337 -306.176L-20.0957 -299.004M1441.65 -410.801L1448.35 -403.633L1454.97 -396.402L1461.52 -389.108L1467.98 -381.751L1474.37 -374.332L1480.69 -366.853L1486.92 -359.313L1493.07 -351.714L1499.14 -344.056L1505.14 -336.34L1511.05 -328.567L1516.88 -320.738L1522.62 -312.853L1528.28 -304.913L1533.86 -296.92L1539.36 -288.873L1544.77 -280.774L1550.09 -272.624L1555.33 -264.423L1560.48 -256.172L1565.54 -247.872L1570.52 -239.523L1575.41 -231.128L1580.21 -222.686L1584.92 -214.198L1589.54 -205.666L1594.07 -197.089L1598.51 -188.47L1602.86 -179.808L1607.12 -171.105L1611.29 -162.362L1615.36 -153.579L1619.34 -144.757L1623.23 -135.898L1627.03 -127.001L1630.73 -118.069L1634.34 -109.102L1637.85 -100.1L1641.27 -91.0657L1644.59 -81.9985L1647.82 -72.9L1650.95 -63.7709L1653.98 -54.6123L1656.92 -45.425L1659.76 -36.2099L1662.51 -26.968L1665.15 -17.7003L1667.7 -8.40762L1670.16 0.909063L1672.51 10.2488L1674.76 19.6107L1676.92 28.9937L1678.98 38.397L1680.94 47.8195L1682.8 57.2604L1684.56 66.7186L1686.22 76.1933L1687.78 85.6833L1689.24 95.188L1690.6 104.706L1691.86 114.237L1693.02 123.779L1694.08 133.332L1695.04 142.895L1695.89 152.466L1696.65 162.045L1697.31 171.631L1697.86 181.223L1698.32 190.82L1698.67 200.42L1698.93 210.023L1699.08 219.629L1699.11 224.432L1699.13 229.235L1699.02 243.088L1698.71 256.939L1698.18 270.784L1697.45 284.621L1696.5 298.445L1695.35 312.256L1693.98 326.049L1692.41 339.821L1690.63 353.571L1688.63 367.294L1686.44 380.988L1684.03 394.65L1681.41 408.278L1678.59 421.868L1675.57 435.417L1672.34 448.923L1668.9 462.383L1665.26 475.795L1661.42 489.154L1657.37 502.459L1653.12 515.706L1648.68 528.893L1644.03 542.017L1639.18 555.075L1634.14 568.066L1628.9 580.984L1623.46 593.829L1617.83 606.598L1612.01 619.287L1606 631.894L1599.79 644.416L1593.4 656.851L1586.81 669.197L1580.04 681.45L1573.09 693.608L1565.95 705.669L1558.63 717.629L1551.13 729.487L1543.44 741.24L1535.59 752.885L1527.55 764.42L1519.34 775.843L1510.96 787.151L1502.41 798.341L1493.69 809.412L1484.8 820.362L1475.75 831.187L1466.53 841.886L1457.15 852.456L1447.62 862.895L1437.92 873.201L1428.07 883.371L1418.07 893.405L1407.91 903.298L1397.61 913.051L1387.16 922.659L1376.56 932.122L1365.83 941.437L1354.95 950.603L1343.93 959.616L1332.78 968.477L1321.5 977.182L1310.08 985.731L1298.54 994.12L1286.87 1002.35L1275.07 1010.41L1263.16 1018.32L1251.12 1026.05L1238.97 1033.62L1226.71 1041.02L1214.34 1048.25L1201.85 1055.31L1189.26 1062.19L1176.57 1068.9L1163.78 1075.43L1150.89 1081.79L1137.9 1087.96L1124.83 1093.96L1111.66 1099.77L1098.41 1105.4L1085.07 1110.85L1071.65 1116.11L1058.15 1121.19L1044.58 1126.07L1030.93 1130.77L1017.21 1135.28L1003.43 1139.6L989.585 1143.73L975.677 1147.67L968.7 1149.56L961.71 1151.41L954.706 1153.21L947.688 1154.96L940.657 1156.66L933.614 1158.32L926.558 1159.92L919.49 1161.48L912.411 1162.98L905.32 1164.44L898.218 1165.85L891.106 1167.21L883.984 1168.52L876.852 1169.78L869.711 1170.99L862.56 1172.15L855.401 1173.26L848.234 1174.33L841.059 1175.34L833.876 1176.3L826.687 1177.22L819.49 1178.08L812.287 1178.89L805.078 1179.66L797.864 1180.37L790.644 1181.04L783.42 1181.65L776.191 1182.22L768.958 1182.73L761.721 1183.19L754.481 1183.61L747.238 1183.97L739.992 1184.29L732.744 1184.55L725.495 1184.76L718.244 1184.93L710.991 1185.04L703.739 1185.1L696.486 1185.12L689.233 1185.08L681.98 1184.99L674.728 1184.85L667.478 1184.67L660.229 1184.43L652.982 1184.14L645.738 1183.8L638.496 1183.41L631.258 1182.97L624.023 1182.48L616.792 1181.94L609.565 1181.36L602.343 1180.72L595.125 1180.03L587.914 1179.29L580.708 1178.5L573.508 1177.66L566.315 1176.77L559.129 1175.83L551.95 1174.85L544.778 1173.81L537.615 1172.72L530.46 1171.59L523.314 1170.4L516.178 1169.16L509.05 1167.88L501.933 1166.54L494.826 1165.16L487.73 1163.73L480.645 1162.25L473.571 1160.72L466.509 1159.14L459.459 1157.51L452.422 1155.83L445.398 1154.1L438.386 1152.33L431.389 1150.51L424.406 1148.64L417.437 1146.72L403.543 1142.73L389.712 1138.56L375.945 1134.19L362.246 1129.63L348.618 1124.89L335.063 1119.95L321.584 1114.83L308.184 1109.52L294.867 1104.03L281.634 1098.36L268.489 1092.5L255.434 1086.46L242.472 1080.24L229.605 1073.84L216.838 1067.26L204.171 1060.51L191.608 1053.58L179.152 1046.48L166.804 1039.21L154.568 1031.77L142.447 1024.16L130.442 1016.38L118.557 1008.44L106.793 1000.33L95.1536 992.065L83.6408 983.636L72.2572 975.049L61.0051 966.305L49.8868 957.406L38.9048 948.355L28.0613 939.152L17.3585 929.8L6.79883 920.301L-3.61561 910.657L-13.8826 900.87L-24 890.942M1800 229.234L1799.99 226.053L1799.98 222.873L1799.92 216.511L1799.68 203.79L1799.29 191.073L1798.73 178.361L1798.02 165.656L1797.15 152.961L1796.12 140.276L1794.93 127.605L1793.59 114.948L1792.09 102.307L1790.43 89.6847L1788.61 77.0824L1786.64 64.502L1784.5 51.9453L1782.22 39.4141L1779.78 26.9102L1777.18 14.4354L1774.42 1.99157L1771.52 -10.4196L1768.45 -22.7963L1765.24 -35.1368L1761.87 -47.4393L1758.34 -59.7019L1754.67 -71.923L1750.84 -84.1007L1746.86 -96.2334L1742.73 -108.319L1738.45 -120.357L1734.02 -132.344L1729.45 -144.278L1724.72 -156.16L1719.84 -167.986L1714.82 -179.754L1709.66 -191.464L1704.34 -203.113L1698.88 -214.701L1693.28 -226.224L1687.54 -237.682L1681.65 -249.072L1675.62 -260.394L1669.45 -271.645L1663.14 -282.824L1656.7 -293.93L1650.11 -304.96L1643.39 -315.914L1636.53 -326.789L1629.53 -337.584L1622.41 -348.298L1615.15 -358.928L1607.75 -369.474L1600.23 -379.934L1592.58 -390.306L1584.8 -400.589L1576.89 -410.781M1800 229.234L1799.91 242.547L1799.65 255.857L1799.22 269.163L1798.61 282.462L1797.83 295.754L1796.88 309.035L1795.75 322.303L1794.45 335.557L1792.98 348.794L1791.34 362.012L1789.52 375.209L1787.53 388.383L1785.37 401.532L1783.04 414.654L1780.54 427.747L1777.86 440.808L1775.02 453.837L1772.01 466.829L1768.83 479.785L1765.48 492.701L1761.96 505.575L1758.28 518.406L1754.42 531.191L1750.4 543.929L1746.22 556.617L1741.87 569.254L1737.36 581.837L1732.68 594.365L1727.84 606.835L1722.84 619.246L1717.67 631.595L1712.35 643.881L1706.86 656.101L1701.22 668.255L1695.42 680.339L1689.46 692.352L1683.35 704.292L1677.08 716.157L1670.65 727.946L1664.08 739.656L1657.35 751.286L1650.47 762.833L1643.44 774.297L1636.26 785.675L1628.94 796.965L1621.46 808.165L1613.84 819.275L1606.08 830.291L1598.18 841.213L1590.13 852.038L1581.94 862.766L1573.61 873.393L1565.15 883.92L1556.55 894.343L1547.81 904.661L1538.94 914.873L1529.94 924.977L1520.81 934.971L1511.54 944.854L1502.15 954.625L1492.63 964.281L1482.99 973.821L1473.23 983.245L1463.34 992.549L1453.33 1001.73L1443.2 1010.8L1432.95 1019.74L1422.59 1028.55L1412.12 1037.24L1401.53 1045.8L1390.83 1054.23L1380.03 1062.54L1369.11 1070.71L1358.09 1078.75L1346.97 1086.66L1335.74 1094.43L1324.41 1102.06L1312.99 1109.56L1301.47 1116.92L1289.85 1124.13L1278.14 1131.21L1266.34 1138.15L1254.45 1144.94L1242.47 1151.59L1230.4 1158.09L1218.26 1164.45L1206.03 1170.66L1193.72 1176.72L1181.33 1182.63L1168.86 1188.39L1156.32 1194L1143.71 1199.46M-22.5757 1031.45L-12.0632 1040.1L-1.43881 1048.62L9.29579 1057.01L20.1389 1065.27L31.0888 1073.4L42.1438 1081.39L53.3021 1089.25L64.562 1096.98L75.9217 1104.57L87.3794 1112.02L98.9333 1119.33L110.582 1126.5L122.323 1133.53L134.154 1140.42L146.075 1147.17L158.082 1153.77L170.174 1160.22L182.35 1166.53L194.607 1172.69L206.943 1178.7L219.357 1184.56L231.846 1190.27L244.408 1195.83M1150.15 229.235L1150.13 226.385L1150.04 221.637L1149.71 214.044L1149.16 206.457L1148.39 198.882L1147.39 191.322L1146.18 183.78L1144.75 176.261L1143.1 168.767L1141.24 161.303L1139.16 153.872L1136.86 146.478L1134.35 139.124L1131.62 131.815L1128.68 124.553L1125.54 117.342L1122.18 110.186L1118.62 103.087L1114.85 96.0511L1106.71 82.1768L1097.76 68.59L1088.04 55.3171L1077.55 42.3841L1066.33 29.8162L1054.38 17.6379L1041.74 5.8732L1028.43 -5.455L1021.53 -10.9485L1014.47 -16.3246L1007.25 -21.5808L999.891 -26.7144L992.38 -31.723L984.726 -36.604L976.931 -41.3551L969 -45.9741L960.937 -50.4586L952.746 -54.8064L944.43 -59.0154L935.994 -63.0836L927.442 -67.009L918.778 -70.7896L910.006 -74.4237L901.131 -77.9093L892.157 -81.2449L883.088 -84.4288L873.928 -87.4595L864.683 -90.3354L855.357 -93.0552L845.953 -95.6175L836.478 -98.021L826.935 -100.265L817.329 -102.347L807.665 -104.268L797.948 -106.026L788.181 -107.62L778.371 -109.049L768.522 -110.313L758.639 -111.411L748.726 -112.343L738.788 -113.108L728.83 -113.705L718.858 -114.135L708.876 -114.398L698.888 -114.492L688.9 -114.418L678.917 -114.177L668.943 -113.767L658.983 -113.19L649.043 -112.446L639.126 -111.535L629.239 -110.457L619.385 -109.214L609.57 -107.805L599.798 -106.231L590.075 -104.493L580.404 -102.593L570.79 -100.53L561.239 -98.306L551.755 -95.9221L542.343 -93.3793L533.007 -90.6788L523.751 -87.8221L514.581 -84.8104L505.501 -81.6453L496.514 -78.3283L487.627 -74.861L478.842 -71.2451L470.164 -67.4824L461.598 -63.5748L453.148 -59.5241L444.817 -55.3323L436.61 -51.0014L428.531 -46.5336L420.584 -41.9312L412.772 -37.1961L405.1 -32.331L397.572 -27.338L390.19 -22.2197L382.958 -16.9784L375.881 -11.6169L368.961 -6.13774L355.608 5.1629L342.924 16.9014L330.934 29.0548L319.663 41.5994L309.131 54.5107L299.36 67.7635L290.368 81.3317L282.173 95.189L278.38 102.218L274.792 109.308L271.41 116.458L268.238 123.662L266.404 128.085L264.65 132.526L261.377 141.46L258.423 150.458L255.789 159.513L253.477 168.619L251.489 177.77L249.827 186.957L248.49 196.176L247.482 205.418L246.801 214.678L246.449 223.949L246.426 233.223L246.732 242.495L247.367 251.756L248.329 261.002L249.62 270.224L251.237 279.417L253.18 288.572L255.446 297.685L258.035 306.748L260.945 315.754L264.173 324.698L267.717 333.572L271.574 342.37L275.742 351.085L280.218 359.712L284.998 368.244L290.079 376.675L295.457 384.998L301.128 393.208L307.088 401.299L313.334 409.264L319.859 417.099L326.66 424.796L333.731 432.351L341.068 439.759L348.665 447.013L356.517 454.108L364.617 461.04L372.96 467.803L381.54 474.392L390.351 480.803L399.386 487.031L408.638 493.071L418.101 498.919L427.768 504.57L437.632 510.021L447.686 515.268L457.923 520.306L468.334 525.133L478.913 529.744L489.651 534.137L500.541 538.307L511.575 542.252L522.746 545.97L534.044 549.457L545.461 552.711L556.99 555.729L568.621 558.509L580.347 561.05L592.159 563.35L604.048 565.406L616.006 567.217L628.024 568.782L640.092 570.1L652.203 571.17L664.348 571.991L676.517 572.563L688.702 572.884L700.895 572.955L713.085 572.777L725.264 572.348L737.424 571.669L749.555 570.741L761.649 569.564L773.697 568.139L785.69 566.468L797.619 564.551L809.476 562.391L821.252 559.987L832.939 557.343L844.527 554.46L856.009 551.34L867.376 547.986L878.62 544.399L889.733 540.583L900.706 536.541L911.532 532.275L922.202 527.788L932.71 523.084L943.047 518.165L953.206 513.037L963.179 507.702L972.959 502.164L982.54 496.427L991.913 490.496L1001.07 484.375L1010.01 478.068L1018.72 471.58L1027.2 464.915L1035.44 458.079L1043.44 451.076L1051.18 443.912L1058.66 436.592L1065.89 429.12L1072.84 421.503L1079.53 413.746L1085.93 405.855L1092.06 397.835L1097.89 389.692L1103.44 381.432L1108.69 373.062L1113.64 364.587L1118.29 356.014L1122.63 347.348L1126.67 338.596L1130.39 329.764L1133.8 320.86L1136.89 311.888L1139.66 302.857L1142.11 293.772L1144.24 284.64L1146.04 275.467L1147.52 266.261L1148.67 257.028L1149.49 247.775L1149.99 238.508L1150.15 229.235ZM1762.46 -45.3197L1334.39 76.7536L1324.98 79.5699L1315.75 82.3446L1306.69 85.0784L1297.79 87.7722L1289.07 90.4268L1280.5 93.0428L1272.1 95.6209L1263.86 98.162L1255.77 100.667L1247.85 103.135L1240.07 105.569L1232.44 107.969L1224.96 110.335L1217.63 112.668L1210.44 114.968L1203.4 117.237L1196.49 119.474L1183.1 123.858L1170.24 128.126L1157.9 132.281L1146.08 136.328L1134.76 140.272L1123.92 144.117L1113.55 147.867L1103.64 151.527L1094.19 155.101L1085.17 158.592L1076.59 162.005L1068.42 165.343L1060.67 168.61L1053.32 171.81L1046.36 174.945L1033.6 181.04L1022.33 186.92L1012.5 192.611L1004.07 198.14L997 203.531L991.257 208.808L986.816 213.993L983.657 219.111L981.493 225.448L981.139 229.235L981.493 233.022L983.657 239.358L986.816 244.476L991.257 249.662L997 254.938L1004.07 260.329L1012.5 265.858L1022.33 271.55L1033.6 277.43L1046.36 283.524L1053.32 286.66L1060.67 289.86L1068.42 293.127L1076.59 296.465L1085.17 299.878L1094.19 303.369L1103.64 306.943L1113.55 310.603L1123.92 314.353L1134.76 318.198L1146.08 322.142L1157.9 326.189L1170.24 330.344L1183.1 334.611L1196.49 338.995L1203.4 341.233L1210.44 343.502L1217.63 345.802L1224.96 348.135L1232.44 350.501L1240.07 352.9L1247.85 355.334L1255.77 357.803L1263.86 360.308L1272.1 362.849L1280.5 365.427L1289.07 368.043L1297.79 370.697L1306.69 373.391L1315.75 376.125L1324.98 378.9L1334.39 381.716L1762.46 503.789M1652.4 -301.164L1404.47 -150.827L1393.59 -144.092L1382.89 -137.461L1372.39 -130.932L1362.07 -124.503L1351.94 -118.173L1341.99 -111.938L1332.22 -105.799L1322.62 -99.7525L1313.2 -93.7974L1303.95 -87.9322L1294.86 -82.1549L1285.95 -76.4643L1277.19 -70.8585L1268.6 -65.3361L1260.16 -59.8955L1251.88 -54.5352L1243.76 -49.2538L1235.79 -44.0498L1227.96 -38.9216L1220.28 -33.8679L1212.75 -28.8873L1205.36 -23.9784L1198.11 -19.1399L1191 -14.3703L1184.03 -9.66844L1170.49 -0.462468L1157.47 8.48825L1144.96 17.1937L1132.95 25.6635L1121.42 33.9071L1110.37 41.9337L1099.77 49.7521L1089.61 57.371L1079.89 64.799L1070.6 72.0443L1061.72 79.1149L1053.24 86.0187L1045.16 92.7633L1037.46 99.3563L1030.14 105.805L1023.19 112.116L1010.36 124.356L998.918 136.129L988.814 147.488L980.002 158.484L972.443 169.165L966.103 179.579L960.953 189.773L956.972 199.791L954.14 209.678L952.446 219.478L951.962 225.578L951.882 229.234L951.962 232.891L952.446 238.992L954.14 248.792L956.972 258.679L960.953 268.697L966.103 278.89L972.443 289.304L980.002 299.985L988.814 310.981L998.918 322.34L1010.36 334.113L1023.19 346.353L1030.14 352.664L1037.46 359.113L1045.16 365.706L1053.24 372.451L1061.72 379.354L1070.6 386.425L1079.89 393.67L1089.61 401.098L1099.77 408.717L1110.37 416.536L1121.42 424.562L1132.95 432.806L1144.96 441.276L1157.47 449.981L1170.49 458.932L1184.03 468.138L1191 472.84L1198.11 477.609L1205.36 482.448L1212.75 487.357L1220.28 492.337L1227.96 497.391L1235.79 502.519L1243.76 507.723L1251.88 513.005L1260.16 518.365L1268.6 523.805L1277.19 529.328L1285.95 534.934L1294.86 540.624L1303.95 546.401L1313.2 552.267L1322.62 558.222L1332.22 564.268L1341.99 570.408L1351.94 576.642L1362.07 582.973L1372.39 589.402L1382.89 595.931L1393.59 602.562L1404.47 609.296L1652.4 759.633M887.733 -418L852.029 -269.418L849.821 -259.935L847.655 -250.588L845.53 -241.374L843.446 -232.29L841.403 -223.335L839.399 -214.506L837.434 -205.8L835.508 -197.214L833.62 -188.747L831.77 -180.397L829.957 -172.16L828.181 -164.034L826.44 -156.018L824.735 -148.109L823.066 -140.304L821.431 -132.603L819.83 -125.001L818.263 -117.499L816.729 -110.092L815.228 -102.78L813.76 -95.5599L812.323 -88.4301L810.919 -81.3886L809.545 -74.4333L806.891 -60.774L804.358 -47.4369L801.942 -34.4073L799.642 -21.6706L797.454 -9.21275L795.376 2.98018L793.406 14.9217L791.542 26.625L789.782 38.1032L788.123 49.369L786.564 60.435L785.104 71.3134L783.74 82.0162L782.47 92.5555L781.294 102.943L780.211 113.19L779.219 123.308L778.316 133.309L777.503 143.202L776.777 153.001L776.139 162.714L775.587 172.354L775.121 181.93L774.741 191.454L774.446 200.936L774.235 210.386L774.108 219.816L774.072 225.703L774.067 229.235L774.072 232.767L774.108 238.654L774.235 248.083L774.446 257.534L774.741 267.016L775.121 276.539L775.587 286.116L776.139 295.755L776.777 305.469L777.503 315.267L778.316 325.161L779.219 335.161L780.211 345.28L781.294 355.527L782.47 365.914L783.74 376.453L785.104 387.156L786.564 398.035L788.123 409.101L789.782 420.366L791.542 431.845L793.406 443.548L795.376 455.489L797.454 467.682L799.642 480.14L801.942 492.877L804.358 505.906L806.891 519.244L809.545 532.903L810.919 539.858L812.323 546.9L813.76 554.029L815.228 561.25L816.729 568.562L818.263 575.968L819.83 583.471L821.431 591.072L823.066 598.774L824.735 606.578L826.44 614.487L828.181 622.504L829.957 630.629L831.77 638.866L833.62 647.217L835.508 655.684L837.434 664.269L839.399 672.975L841.403 681.805L843.446 690.76L845.53 699.843L847.655 709.057L849.821 718.405L852.029 727.888L970.027 1202M622.483 229.235L622.478 225.703L622.442 219.816L622.315 210.386L622.104 200.936L621.809 191.454L621.429 181.93L620.963 172.354L620.411 162.714L619.773 153.001L619.047 143.202L618.234 133.309L617.331 123.308L616.339 113.19L615.256 102.943L614.08 92.5555L612.811 82.0162L611.446 71.3134L609.986 60.435L608.427 49.369L606.768 38.1032L605.008 26.625L603.144 14.9217L601.174 2.98018L599.096 -9.21275L596.909 -21.6706L594.608 -34.4073L592.192 -47.4369L589.659 -60.774L587.005 -74.4333L585.631 -81.3886L584.227 -88.4301L582.79 -95.5599L581.322 -102.78L579.821 -110.092L578.287 -117.499L576.72 -125.001L575.12 -132.603L573.484 -140.304L571.815 -148.109L570.11 -156.018L568.369 -164.034L566.593 -172.16L564.78 -180.397L562.93 -188.747L561.042 -197.214L559.116 -205.8L557.151 -214.506L555.147 -223.335L553.104 -232.29L551.02 -241.374L548.895 -250.588L546.729 -259.935L544.521 -269.418L508.817 -418M23.5308 -412.165L84.4797 -347.87L94.0251 -337.733L103.403 -327.753L112.615 -317.927L121.664 -308.254L130.554 -298.729L139.286 -289.352L147.862 -280.118L156.286 -271.026L164.559 -262.073L172.683 -253.257L180.662 -244.574L188.497 -236.023L196.19 -227.602L203.744 -219.307L211.161 -211.137L218.442 -203.089L225.59 -195.161L232.606 -187.351L239.494 -179.657L246.253 -172.076L252.888 -164.607L259.398 -157.248L265.786 -149.995L272.055 -142.848L278.205 -135.805L290.157 -122.02L301.655 -108.625L312.712 -95.6059L323.341 -82.9477L333.554 -70.6363L343.361 -58.6582L352.774 -47L361.803 -35.6488L370.457 -24.5919L378.748 -13.817L386.684 -3.31228L394.273 6.93412L401.525 16.9334L408.446 26.6969L415.046 36.2352L421.331 45.5591L427.308 54.6789L432.985 63.6047L438.366 72.3465L443.458 80.914L448.268 89.3166L452.799 97.5637L457.058 105.665L461.049 113.628L464.776 121.463L468.244 129.178L471.456 136.783L474.416 144.284L477.127 151.691L479.593 159.012L481.815 166.255L483.797 173.427L485.541 180.538L487.049 187.595L488.321 194.605L489.36 201.577L490.743 215.436L491.089 222.339L491.182 226.218L491.204 229.235L491.182 232.251L491.089 236.13L490.743 243.033L489.36 256.892L488.321 263.864L487.048 270.875L485.541 277.931L483.797 285.042L481.815 292.215L479.593 299.458L477.127 306.779L474.416 314.185L471.456 321.687L468.244 329.291L464.776 337.006L461.049 344.841L457.058 352.805L452.799 360.906L448.268 369.153L443.458 377.555L438.366 386.123L432.984 394.865L427.308 403.79L421.331 412.91L415.046 422.234L408.446 431.773L401.524 441.536L394.273 451.535L386.683 461.782L378.748 472.286L370.457 483.061L361.802 494.118L352.773 505.469L343.361 517.128L333.554 529.106L323.341 541.417L312.712 554.075L301.655 567.094L290.156 580.489L278.205 594.274L272.055 601.318L265.786 608.465L259.398 615.717L252.887 623.077L246.253 630.546L239.493 638.126L232.606 645.821L225.589 653.63L218.441 661.558L211.16 669.606L203.744 677.776L196.19 686.071L188.497 694.493L180.662 703.044L172.683 711.726L164.558 720.543L156.285 729.496L147.862 738.588L139.285 747.821L130.553 757.199L121.664 766.723L112.614 776.396L103.402 786.222L94.0247 796.202L84.4793 806.34L-20.8136 917.022M-19.0059 -157.667L-7.92245 -150.827L2.96482 -144.092L13.6589 -137.462L24.1629 -130.932L34.4795 -124.503L44.6118 -118.173L54.5625 -111.938L64.3344 -105.799L73.9302 -99.7526L83.3526 -93.7975L92.6041 -87.9322L101.687 -82.155L110.605 -76.4644L119.359 -70.8586L127.953 -65.3362L136.388 -59.8956L144.667 -54.5354L152.792 -49.2539L160.766 -44.0498L168.59 -38.9217L176.268 -33.868L183.8 -28.8874L191.189 -23.9785L198.438 -19.14L205.547 -14.3704L212.52 -9.66855L226.063 -0.462539L239.08 8.48818L251.588 17.1936L263.599 25.6634L275.128 33.907L286.186 41.9336L296.786 49.752L306.94 57.3709L316.659 64.7989L325.954 72.0442L334.835 79.1148L343.312 86.0186L351.395 92.7632L359.093 99.3562L366.414 105.805L373.365 112.116L386.193 124.356L397.634 136.129L407.737 147.488L416.549 158.484L424.108 169.165L430.449 179.579L435.598 189.773L439.58 199.791L442.411 209.678L444.105 219.478L444.59 225.578L444.669 229.234L444.59 232.891L444.105 238.992L442.412 248.792L439.58 258.679L435.598 268.697L430.449 278.89L424.109 289.304L416.549 299.985L407.737 310.981L397.634 322.34L386.193 334.113L373.365 346.353L366.414 352.664L359.093 359.113L351.395 365.706L343.312 372.451L334.835 379.354L325.954 386.425L316.659 393.67L306.94 401.098L296.786 408.717L286.186 416.536L275.128 424.562L263.599 432.806L251.588 441.276L239.081 449.981L226.063 458.932L212.52 468.138L205.547 472.84L198.438 477.609L191.189 482.448L183.8 487.357L176.268 492.337L168.59 497.391L160.766 502.519L152.792 507.723L144.667 513.005L136.388 518.365L127.953 523.805L119.359 529.328L110.605 534.934L101.688 540.624L92.6042 546.402L83.3527 552.267L73.9303 558.222L64.3345 564.268L54.5626 570.408L44.6119 576.642L34.4796 582.973L24.1629 589.402L13.6589 595.931L2.96482 602.562L-7.92245 609.296L-19.0059 616.137M-19.6952 52.6303L62.1611 76.7534L71.5693 79.5697L80.8033 82.3444L89.8658 85.0782L98.7594 87.772L107.486 90.4266L116.049 93.0425L124.45 95.6207L132.692 98.1617L140.777 100.666L148.706 103.135L156.484 105.569L164.11 107.969L171.588 110.334L178.92 112.667L186.108 114.968L193.153 117.236L200.058 119.474L213.455 123.858L226.313 128.126L238.647 132.28L250.47 136.327L261.795 140.271L272.635 144.116L283.002 147.867L292.908 151.527L302.363 155.1L311.379 158.592L319.964 162.005L328.129 165.343L335.883 168.61L343.234 171.809L350.191 174.945L362.951 181.04L374.22 186.919L384.048 192.611L392.48 198.14L399.551 203.531L405.295 208.807L409.736 213.993L412.894 219.111L415.058 225.448L415.412 229.234L415.058 233.022L412.894 239.358L409.736 244.476L405.295 249.662L399.551 254.938L392.48 260.329L384.048 265.858L374.22 271.55L362.951 277.43L350.191 283.524L343.234 286.66L335.883 289.86L328.129 293.127L319.964 296.465L311.379 299.878L302.363 303.369L292.908 306.943L283.002 310.603L272.635 314.353L261.795 318.198L250.47 322.142L238.647 326.189L226.313 330.344L213.455 334.611L200.058 338.995L193.153 341.233L186.108 343.502L178.92 345.802L171.588 348.135L164.11 350.501L156.484 352.9L148.706 355.334L140.777 357.803L132.692 360.308L124.45 362.849L116.049 365.427L107.486 368.043L98.7594 370.697L89.8658 373.391L80.8033 376.125L71.5693 378.9L62.1611 381.716L-19.6952 405.839M551.853 229.235L551.842 232.401L551.772 237.68L551.528 246.134L551.121 254.607L550.55 263.108L549.815 271.647L548.915 280.233L547.849 288.876L546.616 297.584L545.215 306.369L543.643 315.24L541.9 324.206L539.983 333.278L537.89 342.465L535.618 351.778L533.166 361.227L530.531 370.823L527.709 380.577L524.697 390.498L521.493 400.599L518.092 410.89L514.491 421.383L510.686 432.089L506.672 443.021L502.446 454.19L498.002 465.61L493.335 477.292L488.441 489.25L483.313 501.496L477.946 514.045L472.335 526.911L466.473 540.107L460.353 553.649L453.968 567.552L450.675 574.643L447.313 581.83L443.881 589.115L440.378 596.5L436.804 603.987L433.157 611.578L429.436 619.276L425.641 627.082L421.77 634.998L417.822 643.027L413.796 651.171L409.692 659.432L405.507 667.812L401.24 676.315L396.892 684.942L392.459 693.695L387.942 702.577L383.338 711.591L378.647 720.738L373.867 730.023L368.997 739.446L364.036 749.011L358.981 758.721L353.833 768.577L348.588 778.584L343.247 788.743L337.807 799.057L332.267 809.53L326.625 820.164L320.88 830.962L315.03 841.927L309.074 853.062L303.009 864.371L147.411 1147.91M622.48 229.235L622.475 232.767L622.439 238.654L622.312 248.083L622.101 257.534L621.806 267.016L621.425 276.539L620.96 286.116L620.408 295.755L619.77 305.469L619.044 315.267L618.231 325.161L617.328 335.161L616.336 345.28L615.252 355.527L614.077 365.914L612.807 376.453L611.443 387.156L609.983 398.035L608.424 409.101L606.765 420.366L605.005 431.845L603.141 443.548L601.171 455.489L599.093 467.682L596.905 480.14L594.605 492.877L592.189 505.906L589.656 519.244L587.001 532.903L585.628 539.858L584.224 546.9L582.787 554.029L581.319 561.25L579.818 568.562L578.284 575.968L576.717 583.471L575.116 591.072L573.481 598.774L571.812 606.578L570.107 614.487L568.366 622.504L566.59 630.629L564.777 638.866L562.927 647.217L561.039 655.684L559.113 664.269L557.148 672.975L555.144 681.805L553.101 690.76L551.017 699.843L548.892 709.057L546.726 718.405L544.518 727.888L426.52 1202M1004.39 229.235L1004.21 226.139L1003.08 220.99L1001.44 216.889L999.149 212.816L996.211 208.777L992.633 204.783L983.59 196.96L972.097 189.414L958.252 182.21L950.484 178.756L942.175 175.41L933.341 172.18L924.003 169.072L914.18 166.093L903.893 163.251L893.165 160.55L882.017 157.996L870.476 155.595L858.564 153.353L846.308 151.274L833.734 149.362L820.869 147.622L807.741 146.057L794.377 144.67L780.807 143.465L767.06 142.445L753.165 141.611L746.172 141.264L739.153 140.965L732.112 140.713L725.052 140.509L717.978 140.352L710.894 140.243L703.803 140.182L696.709 140.168L689.616 140.202L682.527 140.285L675.447 140.415L668.379 140.593L661.327 140.818L654.296 141.091L647.287 141.411L640.306 141.778L626.441 142.654L612.731 143.715L599.204 144.96L585.89 146.386L572.818 147.99L560.015 149.769L547.509 151.718L535.327 153.834L523.495 156.112L512.038 158.547L500.981 161.133L490.348 163.866L480.162 166.739L470.444 169.747L461.216 172.882L452.497 176.139L444.306 179.509L436.66 182.986L423.07 190.231L411.843 197.811L403.075 205.661L399.638 209.666L396.843 213.713L394.484 218.277L392.941 222.87L392.218 227.481L392.317 232.096L393.237 236.703L394.977 241.291L397.531 245.846L400.892 250.356L409.999 259.195L422.2 267.713L429.422 271.822L437.365 275.817L446.009 279.687L455.33 283.421L465.303 287.01L475.903 290.444L487.099 293.713L498.862 296.81L511.161 299.724L523.962 302.45L537.231 304.979L550.933 307.304L557.934 308.389L565.03 309.42L572.215 310.398L579.485 311.321L586.835 312.189L594.259 313.001L601.754 313.757L609.313 314.457L616.931 315.099L624.605 315.683L632.328 316.209L640.095 316.677L647.901 317.087L655.741 317.437L663.61 317.728L671.502 317.96L679.412 318.132L687.334 318.244L695.264 318.297L703.196 318.288L711.125 318.221L719.045 318.094L726.95 317.908L734.837 317.662L742.7 317.357L750.532 316.992L758.329 316.569L766.086 316.087L773.798 315.547L781.459 314.948L789.064 314.293L796.607 313.58L804.085 312.81L811.492 311.984L818.823 311.103L826.073 310.167L833.237 309.176L840.311 308.132L854.167 305.886L867.605 303.433L880.588 300.781L893.082 297.937L905.052 294.909L916.467 291.705L927.297 288.332L937.511 284.801L947.083 281.121L955.987 277.301L964.199 273.352L971.697 269.285L978.461 265.11L989.715 256.483L994.175 252.054L997.841 247.564L1000.7 243.024L1002.75 238.448L1003.98 233.846L1004.39 229.235ZM1028.49 229.235L1028.42 226.214L1028.23 223.194L1027.45 217.164L1024.35 205.169L1019.19 193.325L1012.02 181.707L1002.88 170.387L991.827 159.437L978.929 148.926L971.813 143.855L964.267 138.919L956.303 134.125L947.934 129.48L939.172 124.991L930.032 120.667L920.528 116.513L910.675 112.536L900.488 108.742L889.983 105.138L879.177 101.729L868.087 98.5203L856.73 95.5168L845.124 92.7235L833.288 90.1446L821.239 87.7842L808.997 85.6461L796.581 83.7336L784.01 82.0497L771.305 80.5971L758.485 79.378L745.571 78.3944L732.582 77.6478L719.539 77.1393L706.463 76.8698L693.374 76.8397L680.293 77.0492L667.24 77.4976L654.236 78.1845L641.301 79.1086L628.455 80.2687L615.719 81.6628L603.113 83.2888L590.656 85.1441L578.369 87.2258L566.27 89.5306L554.378 92.0549L542.712 94.7947L531.291 97.7458L520.132 100.903L509.253 104.263L498.671 107.818L488.403 111.565L478.464 115.496L468.871 119.606L459.638 123.888L450.78 128.336L442.311 132.942L434.244 137.7L426.592 142.601L421.216 146.308L416.077 150.086L406.528 157.841L397.979 165.84L390.458 174.057L383.992 182.463L378.602 191.029L374.307 199.726L371.121 208.524L369.057 217.393L368.12 226.303L368.313 235.222L369.637 244.121L372.087 252.969L375.654 261.736L380.326 270.391L386.087 278.906L392.917 287.25L400.793 295.396L409.689 303.315L419.572 310.98L430.411 318.365L442.166 325.445L454.799 332.195L468.266 338.593L475.298 341.653L482.521 344.616L489.929 347.481L497.515 350.244L505.273 352.904L513.196 355.458L521.278 357.903L529.512 360.239L537.89 362.462L546.405 364.571L555.051 366.564L563.819 368.44L572.702 370.196L581.693 371.832L590.784 373.346L599.966 374.736L609.233 376.001L618.577 377.141L627.988 378.154L637.46 379.04L646.984 379.797L656.551 380.425L666.155 380.924L675.786 381.293L685.436 381.531L695.097 381.639L704.761 381.617L714.419 381.464L724.064 381.181L733.686 380.768L743.279 380.224L752.832 379.552L762.339 378.751L771.791 377.821L781.18 376.765L790.498 375.582L799.737 374.273L808.889 372.841L817.946 371.286L826.901 369.608L835.746 367.811L844.473 365.895L853.075 363.862L861.544 361.713L869.873 359.451L878.055 357.078L886.084 354.595L893.951 352.005L901.651 349.309L909.177 346.511L916.522 343.612L923.68 340.615L937.411 334.338L950.323 327.701L962.372 320.727L973.516 313.44L983.718 305.864L992.941 298.025L1001.16 289.951L1008.33 281.669L1014.45 273.207L1019.48 264.595L1023.41 255.861L1026.23 247.037L1027.92 238.151L1028.49 229.235ZM1065.84 229.235L1065.81 226.15L1065.7 223.067L1065.27 216.903L1063.57 204.61L1060.74 192.393L1056.79 180.29L1051.73 168.338L1045.57 156.575L1038.35 145.036L1030.07 133.757L1020.76 122.774L1010.46 112.12L999.198 101.827L987.002 91.9287L973.913 82.4547L967.047 77.886L959.973 73.4344L952.696 69.1031L945.223 64.8957L937.56 60.8152L929.711 56.865L921.683 53.0479L913.482 49.3671L905.116 45.8253L896.589 42.4253L887.909 39.1697L879.082 36.061L870.116 33.1016L861.017 30.2938L851.792 27.6397L842.448 25.1415L832.993 22.8011L823.434 20.6202L813.778 18.6006L804.033 16.7438L794.206 15.0512L784.305 13.5242L774.338 12.164L764.311 10.9715L754.234 9.94776L744.113 9.09351L733.957 8.40942L723.773 7.89598L713.57 7.55367L703.355 7.38262L693.136 7.38312L682.92 7.55503L672.717 7.8983L662.534 8.4128L652.378 9.09789L642.257 9.95314L632.18 10.978L622.154 12.1714L612.187 13.5327L602.286 15.0607L592.46 16.7543L582.715 18.612L573.06 20.6326L563.501 22.8145L554.047 25.1559L544.704 27.6549L535.479 30.3099L526.381 33.1186L517.416 36.0789L508.59 39.1885L499.911 42.445L491.385 45.8459L483.019 49.3885L474.82 53.0701L466.793 56.888L458.945 60.839L451.283 64.9202L443.811 69.1284L436.535 73.4604L429.463 77.9127L415.946 87.1649L403.301 96.8562L391.569 106.957L380.784 117.435L370.981 128.259L362.19 139.396L354.438 150.81L347.749 162.466L342.143 174.329L337.638 186.361L334.248 198.526L331.983 210.786L330.851 223.103L330.854 235.439L331.993 247.756L334.264 260.016L337.661 272.18L342.173 284.212L347.785 296.073L354.481 307.728L362.239 319.141L365.485 323.437L368.882 327.691L376.121 336.063L383.945 344.242L392.337 352.212L401.284 359.96L410.77 367.47L420.776 374.731L431.284 381.727L442.277 388.447L453.733 394.879L465.633 401.011L477.954 406.831L490.674 412.33L503.77 417.497L517.218 422.323L530.995 426.799L537.999 428.903L545.075 430.917L552.22 432.839L559.432 434.67L566.707 436.407L574.041 438.05L581.431 439.599L588.875 441.052L596.368 442.41L603.907 443.671L611.489 444.834L619.11 445.9L626.767 446.868L634.457 447.738L642.175 448.508L649.919 449.179L657.685 449.75L665.469 450.222L673.268 450.593L681.078 450.865L688.896 451.035L696.718 451.105L704.541 451.075L712.362 450.944L720.175 450.713L727.979 450.382L735.77 449.95L743.543 449.418L751.296 448.787L759.025 448.056L766.726 447.226L774.397 446.297L782.033 445.27L789.631 444.145L797.187 442.923L804.699 441.604L812.163 440.188L819.574 438.678L826.931 437.072L834.23 435.372L841.467 433.579L848.64 431.693L855.744 429.715L862.777 427.647L876.616 423.242L890.132 418.485L903.3 413.385L916.097 407.951L928.499 402.194L940.484 396.123L952.03 389.751L963.116 383.087L973.723 376.144L983.83 368.935L993.421 361.474L1002.48 353.772L1010.98 345.845L1018.92 337.707L1026.27 329.372L1033.04 320.855L1039.19 312.173L1044.73 303.341L1049.64 294.374L1053.92 285.289L1057.55 276.103L1060.52 266.831L1062.85 257.492L1064.51 248.101L1065.51 238.676L1065.84 229.235ZM1089.93 229.235L1089.89 225.633L1089.78 222.033L1089.33 214.837L1088.58 207.653L1087.52 200.484L1086.17 193.338L1084.52 186.22L1082.58 179.134L1080.34 172.088L1077.8 165.085L1074.97 158.131L1068.45 144.393L1060.79 130.916L1052.02 117.741L1042.16 104.909L1031.24 92.4588L1019.3 80.4294L1006.37 68.8575L992.491 57.7787L985.211 52.4349L977.71 47.2269L969.995 42.1589L962.07 37.2348L953.943 32.4582L945.619 27.8329L937.105 23.3624L928.408 19.0501L919.533 14.8995L910.489 10.9136L901.281 7.09559L891.918 3.4483L882.405 -0.0254045L872.751 -3.32286L862.963 -6.44158L853.048 -9.37906L843.014 -12.1332L832.869 -14.7017L822.621 -17.0827L812.277 -19.2744L801.845 -21.2749L791.333 -23.083L780.75 -24.6971L770.104 -26.1159L759.403 -27.3385L748.654 -28.3638L737.867 -29.1911L727.049 -29.8198L716.209 -30.2492L705.356 -30.4793L694.497 -30.5096L683.641 -30.3402L672.796 -29.9713L661.97 -29.4032L651.173 -28.6363L640.412 -27.6711L629.695 -26.5084L619.031 -25.1491L608.428 -23.5943L597.894 -21.8451L587.437 -19.9028L577.066 -17.7691L566.787 -15.4455L556.61 -12.9338L546.542 -10.2359L536.59 -7.35393L526.762 -4.29007L517.067 -1.04671L507.51 2.37367L498.101 5.96845L488.845 9.73489L479.75 13.6701L470.823 17.7709L462.071 22.0344L453.501 26.4571L445.118 31.0357L436.931 35.7667L428.944 40.6464L421.164 45.671L413.598 50.8368L406.25 56.1398L399.127 61.5758L385.575 72.8301L372.985 84.5654L361.395 96.7454L350.841 109.333L341.355 122.289L332.966 135.573L325.7 149.146L319.58 162.965L316.955 169.953L314.624 176.988L312.587 184.062L310.848 191.171L309.405 198.309L308.262 205.471L307.419 212.651L306.876 219.844L306.634 227.045L306.693 234.247L307.053 241.445L307.713 248.633L308.674 255.807L309.935 262.961L311.494 270.088L313.35 277.184L315.503 284.243L317.949 291.26L323.717 305.145L330.637 318.798L338.687 332.174L342.084 337.244L345.644 342.265L353.244 352.151L361.474 361.811L370.318 371.23L379.761 380.39L389.785 389.274L400.372 397.866L411.503 406.15L423.157 414.111L435.312 421.735L447.948 429.008L461.041 435.916L474.566 442.447L481.484 445.568L488.5 448.589L495.612 451.511L502.816 454.331L510.11 457.049L517.49 459.662L524.952 462.17L532.493 464.572L540.109 466.867L547.798 469.054L555.556 471.13L563.378 473.097L571.262 474.952L579.205 476.695L587.201 478.326L595.248 479.842L603.342 481.245L611.48 482.532L619.657 483.704L627.87 484.759L636.115 485.698L644.388 486.52L652.686 487.225L661.005 487.812L669.341 488.281L677.69 488.632L686.048 488.864L694.412 488.978L702.778 488.973L711.141 488.85L719.499 488.608L727.847 488.248L736.182 487.771L744.499 487.175L752.795 486.461L761.067 485.63L769.31 484.682L777.52 483.618L785.694 482.437L793.828 481.141L801.919 479.73L809.962 478.205L817.955 476.566L825.893 474.814L833.772 472.95L841.59 470.975L849.342 468.89L857.026 466.695L864.637 464.392L872.172 461.982L879.628 459.465L887.001 456.844L894.288 454.119L901.485 451.291L908.59 448.361L915.599 445.332L929.316 438.979L942.612 432.244L955.461 425.138L967.842 417.674L979.73 409.867L991.105 401.73L1001.95 393.279L1012.23 384.527L1021.95 375.493L1031.07 366.192L1039.58 356.641L1047.48 346.857L1054.73 336.858L1061.34 326.664L1067.28 316.291L1072.55 305.76L1077.14 295.089L1081.03 284.298L1084.23 273.406L1086.72 262.434L1088.5 251.401L1089.57 240.327L1089.93 229.235ZM1150.15 229.235L1150.13 225.516L1149.97 219.32L1149.4 209.414L1148.46 199.524L1147.15 189.659L1145.46 179.827L1143.4 170.036L1140.97 160.294L1138.18 150.61L1135.01 140.991L1131.48 131.446L1127.59 121.981L1123.35 112.607L1118.75 103.329L1113.8 94.1558L1108.51 85.0951L1102.87 76.1544L1096.9 67.3412L1090.59 58.6626L1083.96 50.126L1077.01 41.7384L1069.74 33.5068L1062.16 25.4381L1054.28 17.5391L1046.11 9.81611L1037.64 2.27579L1028.9 -5.07568L1019.87 -12.2322L1010.58 -19.1877L1001.03 -25.9365L991.232 -32.473L981.186 -38.7917L970.905 -44.8874L960.397 -50.7549L949.671 -56.3895L938.736 -61.7864L927.6 -66.941L916.274 -71.8493L904.766 -76.507L893.087 -80.9103L881.245 -85.0554L869.251 -88.939L857.115 -92.5579L844.847 -95.909L832.456 -98.9895L819.954 -101.797L807.351 -104.329L794.657 -106.583L781.883 -108.558L769.039 -110.252L756.137 -111.663L743.186 -112.791L730.198 -113.634L717.183 -114.191L704.152 -114.463L691.117 -114.449L678.088 -114.149L665.075 -113.563L652.09 -112.692L639.144 -111.537L626.246 -110.097L613.409 -108.376L600.642 -106.373L587.957 -104.091L575.363 -101.532L562.872 -98.6977L550.493 -95.5903L538.237 -92.2126L526.115 -88.5674L514.135 -84.6578L502.309 -80.487L490.646 -76.0584L479.156 -71.3758L467.848 -66.443L456.732 -61.2642L445.817 -55.8437L435.112 -50.1859L424.626 -44.2956L414.368 -38.1776L404.346 -31.8372L394.568 -25.2795L385.044 -18.51L375.78 -11.5343L366.784 -4.35835L358.064 3.0121L349.627 10.5708L341.481 18.3114L333.631 26.2275L326.085 34.3126L318.848 42.5599L311.928 50.9625L305.328 59.5134L299.056 68.2056L293.116 77.0319L287.513 85.9847L282.252 95.0568L277.337 104.24L272.773 113.528L268.562 122.912L264.709 132.385L261.217 141.938L258.089 151.564L255.327 161.254L252.933 171.001L250.911 180.796L249.26 190.632L247.983 200.5L247.081 210.392L246.554 220.299L246.403 230.214L246.628 240.128L247.229 250.033L248.206 259.92L249.556 269.783L251.281 279.611L253.377 289.397L255.844 299.134L258.678 308.812L261.879 318.424L265.442 327.962L269.366 337.418L273.647 346.783L278.281 356.051L283.265 365.213L288.593 374.262L294.263 383.191L300.269 391.991L306.607 400.656L313.27 409.178L315.684 412.133L318.136 415.068L323.158 420.882L333.661 432.272L344.762 443.33L356.441 454.036L368.681 464.375L381.46 474.328L394.759 483.879L408.555 493.014L415.632 497.42L422.825 501.716L430.131 505.901L437.547 509.972L445.07 513.928L452.696 517.768L460.423 521.489L468.247 525.091L476.166 528.572L484.175 531.93L492.272 535.164L500.454 538.272L508.717 541.254L517.057 544.109L525.471 546.834L533.957 549.429L542.509 551.893L551.126 554.225L559.803 556.424L568.536 558.488L577.323 560.418L586.159 562.212L595.041 563.87L603.965 565.391L612.928 566.774L621.926 568.019L630.955 569.125L640.012 570.091L649.093 570.919L658.193 571.606L667.31 572.153L676.44 572.559L685.579 572.825L694.723 572.95L703.869 572.934L713.012 572.777L722.149 572.48L731.277 572.042L740.39 571.464L749.487 570.746L758.563 569.888L767.614 568.89L776.636 567.753L785.627 566.477L794.581 565.064L803.497 563.512L812.369 561.824L821.194 560L829.969 558.04L838.69 555.945L847.354 553.717L855.956 551.355L864.494 548.862L872.964 546.238L881.363 543.484L889.686 540.601L897.931 537.59L906.094 534.454L914.172 531.192L922.161 527.807L930.059 524.299L937.862 520.671L945.567 516.923L953.171 513.057L960.67 509.075L968.061 504.978L975.342 500.769L982.51 496.448L989.561 492.018L996.493 487.48L1009.99 478.089L1022.97 468.29L1035.42 458.099L1047.32 447.534L1058.65 436.61L1069.39 425.348L1079.52 413.763L1089.02 401.877L1097.89 389.707L1106.1 377.275L1113.64 364.6L1120.5 351.704L1126.67 338.607L1132.14 325.33L1136.89 311.896L1140.93 298.327L1144.25 284.645L1146.83 270.872L1148.68 257.03L1149.79 243.143L1150.06 236.19L1150.15 229.235Z" stroke="#3182CE" stroke-width="2" stroke-miterlimit="10"/>
</g>
</g>
<defs>
<radialGradient id="paint0_radial" cx="0" cy="0" r="1" gradientUnits="userSpaceOnUse" gradientTransform="translate(700 192.613) rotate(90) scale(497.774 682)">
<stop stop-color="white" stop-opacity="0.63"/>
<stop offset="1" stop-color="white" stop-opacity="0"/>
</radialGradient>
</defs>
</svg>
