<?xml version="1.0" standalone="no"?>
<!DOCTYPE svg PUBLIC "-//W3C//DTD SVG 20010904//EN"
 "http://www.w3.org/TR/2001/REC-SVG-20010904/DTD/svg10.dtd">
<svg version="1.0" xmlns="http://www.w3.org/2000/svg"
 width="512.000000pt" height="512.000000pt" viewBox="0 0 512.000000 512.000000"
 preserveAspectRatio="xMidYMid meet">
<metadata>
Created by potrace 1.14, written by Peter Selinger 2001-2017
</metadata>
<g transform="translate(0.000000,512.000000) scale(0.100000,-0.100000)"
fill="#000000" stroke="none">
<path d="M0 2560 l0 -2560 2560 0 2560 0 0 2560 0 2560 -2560 0 -2560 0 0
-2560z m2364 2430 c14 -58 28 -116 30 -130 3 -14 5 -25 6 -25 1 0 3 -11 5 -25
2 -14 10 -56 19 -93 18 -78 19 -87 8 -87 -4 0 -8 10 -9 23 -1 23 -5 41 -28
142 -7 33 -16 76 -19 95 -3 19 -12 56 -19 82 -8 26 -12 49 -9 52 3 4 0 6 -6 6
-6 0 -10 -12 -7 -28 2 -16 -1 -35 -6 -43 -5 -9 -9 17 -9 71 0 49 4 80 9 75 5
-6 21 -57 35 -115z m-43 -103 c-8 -8 -11 -5 -11 9 0 27 14 41 18 19 2 -9 -1
-22 -7 -28z m437 -16 c-18 -14 -52 -46 -75 -69 l-43 -42 0 -509 c0 -475 -1
-509 -17 -516 -15 -5 -16 -4 -5 6 9 10 12 127 12 518 l0 506 72 72 c39 40 75
70 80 67 5 -3 -6 -18 -24 -33z m29 -13 c-3 -8 -6 -5 -6 6 -1 11 2 17 5 13 3
-3 4 -12 1 -19z m-471 -20 c-16 -99 -115 -348 -138 -348 -4 0 -8 -6 -8 -12 0
-23 -136 -200 -228 -298 -344 -364 -434 -483 -497 -658 -11 -29 -22 -52 -27
-52 -10 0 -4 17 52 135 42 90 134 226 208 308 34 37 54 59 178 193 56 60 114
123 129 139 42 45 141 177 174 232 39 62 111 211 111 228 0 7 7 31 15 54 12
36 21 71 24 104 1 4 4 7 7 7 3 0 3 -15 0 -32z m471 -160 c-3 -8 -6 -5 -6 6 -1
11 2 17 5 13 3 -3 4 -12 1 -19z m0 -40 c-3 -8 -6 -5 -6 6 -1 11 2 17 5 13 3
-3 4 -12 1 -19z m-344 -33 c4 -8 2 -17 -3 -20 -6 -4 -10 3 -10 14 0 25 6 27
13 6z m344 -7 c-3 -8 -6 -5 -6 6 -1 11 2 17 5 13 3 -3 4 -12 1 -19z m-340 -75
c-3 -10 -5 -2 -5 17 0 19 2 27 5 18 2 -10 2 -26 0 -35z m12 -60 c-1 -38 -1
-38 -9 -9 -8 27 -6 46 6 46 2 0 4 -17 3 -37z m328 -5 c-3 -7 -5 -2 -5 12 0 14
2 19 5 13 2 -7 2 -19 0 -25z m-317 -79 c0 -24 -4 -38 -10 -34 -11 7 -9 75 3
75 4 0 7 -18 7 -41z m4 -203 c-2 -136 -8 -191 -30 -303 -2 -16 -7 -40 -9 -56
-2 -15 -7 -32 -10 -37 -4 -6 -147 -10 -380 -10 l-373 0 -59 -80 c-64 -88 -70
-100 -54 -100 13 0 23 11 86 98 26 35 49 61 53 57 3 -3 2 -9 -4 -13 -6 -4 -31
-37 -57 -73 -49 -70 -69 -85 -93 -71 -12 7 0 28 55 102 l71 94 369 -1 c396 0
379 -2 386 47 1 8 7 40 14 70 15 71 22 169 23 300 0 93 4 130 13 130 1 0 1
-69 -1 -154z m313 122 c-3 -8 -6 -5 -6 6 -1 11 2 17 5 13 3 -3 4 -12 1 -19z
m0 -180 c-3 -8 -6 -5 -6 6 -1 11 2 17 5 13 3 -3 4 -12 1 -19z m0 -160 c-3 -8
-6 -5 -6 6 -1 11 2 17 5 13 3 -3 4 -12 1 -19z m0 -55 c-3 -10 -5 -4 -5 12 0
17 2 24 5 18 2 -7 2 -21 0 -30z m973 -220 c-22 -32 -47 -66 -54 -76 -12 -16
-46 -17 -464 -17 -344 -1 -452 -4 -455 -13 -3 -7 -6 -4 -6 6 -1 16 27 17 453
17 l455 0 18 30 c9 17 20 30 23 30 3 0 16 18 30 40 14 22 28 40 33 40 5 0 -10
-26 -33 -57z m-1118 -1560 l3 -1478 68 69 c37 38 67 65 67 60 0 -11 -131 -144
-142 -144 -5 0 -8 666 -8 1479 l0 1479 -140 1 -139 1 -17 -32 c-21 -42 -72
-106 -165 -209 -142 -158 -240 -268 -265 -298 -10 -12 -33 -39 -51 -60 -39
-44 -112 -165 -116 -191 -4 -25 -17 -38 -17 -17 0 46 100 197 212 318 31 34
133 149 170 191 9 11 47 54 84 95 75 83 123 145 143 186 l14 27 149 0 148 0 2
-1477z m145 1375 c-3 -7 -5 -2 -5 12 0 14 2 19 5 13 2 -7 2 -19 0 -25z m-1371
-60 c-3 -13 -9 -42 -12 -65 -4 -24 -11 -43 -16 -43 -8 0 -4 31 13 84 5 15 6
32 3 37 -3 5 0 9 7 9 7 0 9 -8 5 -22z m1371 -100 c-3 -8 -6 -5 -6 6 -1 11 2
17 5 13 3 -3 4 -12 1 -19z m-1467 -48 c0 -21 -4 -28 -14 -24 -21 8 -130 -222
-176 -371 -27 -84 -62 -263 -55 -274 3 -5 0 -13 -6 -17 -12 -7 -8 50 7 116 3
14 7 38 10 54 5 39 33 133 50 174 8 18 14 37 14 42 0 11 61 145 103 225 17 33
35 70 41 82 15 32 26 29 26 -7z m70 4 c0 -14 -4 -23 -9 -20 -5 3 -7 15 -4 26
7 28 13 25 13 -6z m-80 -81 c0 -24 -3 -33 -9 -25 -7 12 -4 62 5 62 2 0 4 -17
4 -37z m67 -105 c-2 -29 -3 -8 -3 47 0 55 1 79 3 53 2 -26 2 -71 0 -100z
m1410 50 c-3 -8 -6 -5 -6 6 -1 11 2 17 5 13 3 -3 4 -12 1 -19z m-1485 -37 c0
-23 -2 -45 -6 -48 -3 -4 -6 18 -6 47 0 29 3 51 6 48 3 -3 5 -25 6 -47z m-5
-148 c1 -121 10 -223 22 -256 13 -34 13 -37 2 -37 -14 0 -32 121 -37 247 -4
98 -1 133 9 133 2 0 3 -39 4 -87z m148 -173 c15 -41 42 -103 61 -137 19 -35
31 -63 27 -63 -11 0 -114 208 -111 223 1 1 -6 27 -15 57 -8 30 -18 72 -21 92
-3 21 -6 41 -7 45 -1 4 0 15 1 23 1 8 10 -25 20 -75 10 -49 30 -124 45 -165z
m1342 198 c-3 -8 -6 -5 -6 6 -1 11 2 17 5 13 3 -3 4 -12 1 -19z m0 -55 c-3
-10 -5 -4 -5 12 0 17 2 24 5 18 2 -7 2 -21 0 -30z m0 -185 c-3 -8 -6 -5 -6 6
-1 11 2 17 5 13 3 -3 4 -12 1 -19z m-1055 -33 c3 -30 2 -33 -10 -21 -9 8 -11
22 -7 35 9 29 12 26 17 -14z m1055 -7 c-3 -8 -6 -5 -6 6 -1 11 2 17 5 13 3 -3
4 -12 1 -19z m0 -40 c-3 -8 -6 -5 -6 6 -1 11 2 17 5 13 3 -3 4 -12 1 -19z
m-1049 -39 c1 -18 17 -62 34 -98 41 -86 119 -163 246 -246 21 -14 25 -16 122
-87 181 -131 257 -248 301 -466 21 -104 23 -132 10 -132 -4 0 -7 11 -6 25 7
56 -47 251 -89 325 -69 122 -116 167 -331 315 -56 39 -109 77 -119 85 -48 42
-101 99 -124 135 -37 58 -78 196 -54 181 4 -2 9 -19 10 -37z m-393 -8 c16 -76
114 -199 205 -260 64 -43 202 -111 224 -111 9 0 16 -4 16 -9 0 -13 -33 -3
-102 31 -32 15 -61 28 -64 28 -3 0 -31 17 -62 37 -80 52 -166 145 -201 217
-35 75 -47 111 -33 102 6 -3 13 -19 17 -35z m258 -117 c51 -68 173 -184 193
-184 7 0 14 -4 16 -9 2 -4 57 -37 123 -71 192 -101 215 -114 258 -150 55 -45
127 -127 127 -143 0 -17 -21 -3 -76 51 -75 73 -157 127 -256 168 -43 19 -82
33 -86 33 -21 0 -102 26 -102 33 0 11 7 10 29 -2 10 -5 32 -12 50 -15 17 -3
54 -14 81 -25 81 -32 81 -23 0 22 -221 120 -272 160 -364 283 -31 40 -56 77
-56 81 0 10 6 3 63 -72z m-535 -54 c0 -61 -4 -113 -9 -116 -5 -3 -9 45 -9 110
0 64 4 116 9 116 5 0 9 -50 9 -110z m1719 58 c-3 -8 -6 -5 -6 6 -1 11 2 17 5
13 3 -3 4 -12 1 -19z m0 -160 c-3 -8 -6 -5 -6 6 -1 11 2 17 5 13 3 -3 4 -12 1
-19z m0 -55 c-3 -10 -5 -4 -5 12 0 17 2 24 5 18 2 -7 2 -21 0 -30z m-1715 -29
c-6 -35 -12 -29 -12 14 0 23 3 32 9 24 4 -7 6 -24 3 -38z m28 -156 c0 -5 -4
-8 -9 -8 -6 0 -10 8 -10 18 0 9 -3 40 -5 67 l-5 50 14 -60 c8 -33 14 -63 15
-67z m1687 0 c-3 -8 -6 -5 -6 6 -1 11 2 17 5 13 3 -3 4 -12 1 -19z m-1680 -37
c2 -30 53 -143 89 -196 57 -87 175 -192 258 -231 20 -10 36 -21 36 -26 0 -4 8
-8 18 -8 9 0 28 -9 42 -20 20 -16 21 -19 5 -13 -11 4 -36 16 -55 26 -19 11
-52 29 -73 41 -21 11 -46 28 -57 38 -10 10 -22 18 -26 18 -12 0 -129 124 -160
170 -45 67 -105 220 -87 220 5 0 9 -8 10 -19z m1680 -3 c-3 -8 -6 -5 -6 6 -1
11 2 17 5 13 3 -3 4 -12 1 -19z m0 -40 c-3 -8 -6 -5 -6 6 -1 11 2 17 5 13 3
-3 4 -12 1 -19z m0 -140 c-3 -7 -5 -2 -5 12 0 14 2 19 5 13 2 -7 2 -19 0 -25z
m0 -160 c-3 -8 -6 -5 -6 6 -1 11 2 17 5 13 3 -3 4 -12 1 -19z m-317 -185 c0
-25 -3 -44 -6 -40 -10 9 -12 87 -3 87 5 0 9 -21 9 -47z m-825 8 c5 -4 38 -16
73 -26 34 -10 62 -22 62 -26 0 -4 -30 3 -67 16 -103 36 -133 49 -133 57 0 8
46 -7 65 -21z m1142 -3 c-3 -8 -6 -5 -6 6 -1 11 2 17 5 13 3 -3 4 -12 1 -19z
m-977 -58 c0 -5 -4 -10 -10 -10 -5 0 -10 5 -10 10 0 6 5 10 10 10 6 0 10 -4
10 -10z m55 -14 c18 -8 36 -12 39 -8 3 3 6 0 6 -7 0 -8 -8 -10 -22 -5 -44 13
-68 24 -68 29 0 8 8 6 45 -9z m611 -417 c1 -230 -2 -419 -6 -419 -12 0 -17 31
-14 90 1 30 3 214 4 408 1 194 5 350 9 347 3 -4 6 -195 7 -426z m-411 355 c55
-18 115 -51 115 -65 0 -4 -15 2 -33 14 -18 13 -77 36 -130 52 -53 17 -97 33
-97 37 0 4 21 0 48 -8 26 -8 70 -22 97 -30z m722 -26 c-3 -8 -6 -5 -6 6 -1 11
2 17 5 13 3 -3 4 -12 1 -19z m0 -55 c-3 -10 -5 -4 -5 12 0 17 2 24 5 18 2 -7
2 -21 0 -30z m-533 -50 c25 -31 58 -82 75 -114 31 -59 100 -254 106 -299 2
-14 6 -43 9 -65 5 -36 4 -35 -9 10 -8 27 -12 51 -10 54 3 2 0 10 -6 18 -6 7
-9 13 -6 13 19 0 -100 293 -137 338 -6 7 -15 18 -21 25 -5 7 -23 27 -39 45
-17 18 -24 32 -18 32 6 0 32 -26 56 -57z m533 -135 c-3 -8 -6 -5 -6 6 -1 11 2
17 5 13 3 -3 4 -12 1 -19z m0 -40 c-3 -8 -6 -5 -6 6 -1 11 2 17 5 13 3 -3 4
-12 1 -19z m0 -40 c-3 -8 -6 -5 -6 6 -1 11 2 17 5 13 3 -3 4 -12 1 -19z m-799
-123 c126 -34 251 -122 325 -228 44 -64 71 -116 63 -124 -7 -7 -56 69 -50 79
3 5 2 7 -3 6 -10 -4 -42 20 -67 50 -30 34 -9 26 26 -10 l30 -33 -16 30 c-8 17
-24 39 -33 50 -49 56 -193 150 -243 160 -13 2 -39 10 -59 17 -20 6 -85 12
-146 12 -72 0 -98 3 -75 7 49 11 185 2 248 -16z m1432 6 c20 -8 16 -9 -20 -3
-25 4 -85 6 -135 6 -62 -1 -81 2 -60 7 38 10 182 3 215 -10z m-633 -23 c-3 -7
-5 -2 -5 12 0 14 2 19 5 13 2 -7 2 -19 0 -25z m-1117 12 c0 -5 -7 -10 -15 -10
-8 0 -71 -25 -140 -56 -69 -30 -134 -57 -143 -60 -65 -16 -147 -32 -151 -29
-5 6 8 9 84 26 80 17 62 10 215 79 58 26 114 50 125 53 11 2 21 5 23 6 1 0 2
-3 2 -9z m1449 -9 c-31 -10 -63 -22 -70 -26 -12 -8 -12 -6 -1 8 8 9 32 20 55
26 68 15 76 11 16 -8z m483 -42 c59 -27 112 -49 118 -49 5 0 10 -4 10 -10 0
-12 -17 -5 -133 49 -48 22 -93 41 -100 41 -7 0 -22 7 -33 16 -18 14 -18 15 6
8 13 -4 73 -29 132 -55z m-573 8 c-2 -2 -29 -20 -59 -40 -59 -39 -147 -123
-138 -132 3 -3 12 0 19 7 62 61 239 155 239 127 0 -5 -6 -9 -13 -9 -17 0 -133
-58 -161 -79 -53 -43 -110 -100 -138 -139 -35 -50 -45 -50 -24 0 19 44 76 121
128 171 45 43 140 109 147 102 2 -3 2 -7 0 -8z m-1071 -12 c28 -4 52 -11 52
-15 0 -4 -21 -3 -47 2 -77 14 -214 10 -278 -8 -14 -5 -17 -3 -10 5 23 24 162
32 283 16z m1455 -6 c20 -5 37 -12 37 -15 0 -3 -9 -2 -20 1 -66 21 -256 20
-316 -1 -14 -5 -16 -4 -9 4 24 27 222 34 308 11z m-1758 -18 c-15 -14 -86 -41
-80 -30 4 5 21 16 38 23 38 17 55 20 42 7z m465 -29 c49 -22 110 -63 110 -73
0 -4 -24 8 -52 27 -29 19 -74 42 -100 52 -27 9 -48 20 -48 24 0 8 31 -2 90
-30z m1440 -2 c30 -12 78 -32 108 -46 29 -13 57 -24 62 -24 6 0 10 -4 10 -10
0 -5 -37 7 -82 27 -46 19 -109 45 -140 57 -32 11 -58 24 -58 28 0 4 10 4 23
-1 12 -5 47 -19 77 -31z m-2001 -13 c-6 -6 -257 -107 -263 -107 -3 0 -6 5 -6
10 0 6 6 10 14 10 15 0 122 41 206 79 24 11 47 18 49 15 2 -2 2 -6 0 -7z
m2214 4 c13 -5 38 -12 56 -14 36 -6 54 -17 27 -17 -28 0 -106 22 -112 31 -7
11 -1 11 29 0z m-2829 -17 c42 -8 27 -15 -19 -9 -50 6 -50 6 -106 -47 -31 -29
-89 -84 -130 -121 -59 -54 -71 -70 -59 -77 11 -7 8 -10 -14 -10 -25 0 -27 2
-15 17 8 9 34 35 58 57 25 23 83 78 130 124 73 70 90 81 111 76 14 -3 33 -8
44 -10z m3381 -60 c44 -42 103 -97 130 -123 28 -26 56 -55 64 -64 12 -15 11
-17 -8 -17 -13 0 -19 4 -16 10 4 6 -30 45 -76 88 -45 42 -104 98 -131 124 -43
41 -52 46 -76 38 -45 -14 -92 -20 -92 -12 0 4 13 9 29 10 17 1 40 6 53 11 13
6 28 10 33 10 6 0 46 -34 90 -75z m-3325 46 c0 -5 -4 -10 -10 -10 -5 0 -10 5
-10 10 0 6 5 10 10 10 6 0 10 -4 10 -10z m2914 -1 c3 -3 -4 -5 -14 -6 -11 -1
-20 2 -20 7 0 8 25 8 34 -1z m-2737 -5 c-10 -10 -99 -12 -122 -3 -13 5 8 8 54
8 41 1 71 -2 68 -5z m2888 -3 c-22 -9 -123 -7 -132 3 -4 3 29 6 73 5 50 0 72
-3 59 -8z m-102 -86 c34 -4 64 -8 67 -10 3 -1 39 3 80 10 85 15 103 12 39 -6
-68 -19 -188 -12 -294 16 -52 14 -97 25 -100 25 -3 0 -5 4 -5 9 0 5 34 -2 76
-15 41 -12 103 -26 137 -29z m-2956 -1 c72 -10 192 -1 240 17 14 5 28 7 31 5
6 -6 -5 -10 -68 -27 -63 -16 -206 -13 -259 6 -47 16 -77 19 -83 8 -1 -5 -28
-28 -58 -53 -30 -24 -72 -61 -92 -82 -23 -23 -43 -35 -53 -32 -8 4 -15 8 -15
11 0 3 7 3 15 0 8 -4 22 4 32 16 27 32 118 111 171 149 21 14 28 15 57 2 19
-8 56 -17 82 -20z m3263 2 c7 -9 17 -16 22 -16 17 0 152 -130 143 -138 -2 -2
-23 16 -47 40 -24 24 -63 59 -88 78 -25 19 -48 39 -51 44 -4 5 -16 6 -28 3
-22 -5 -30 8 -8 16 15 5 39 -6 57 -27z m-2277 -15 c8 -8 -1 -9 -38 -4 -63 10
-225 10 -290 0 -31 -4 -46 -4 -40 2 15 15 77 19 223 16 84 -1 137 -6 145 -14z
m1474 7 c50 -9 34 -20 -17 -12 -68 11 -220 12 -277 1 -30 -5 -43 -4 -43 4 0 6
6 9 13 6 6 -2 21 -1 32 4 19 7 246 5 292 -3z m-1857 -19 c0 -5 -4 -8 -9 -5 -5
4 -37 -3 -72 -14 -35 -10 -65 -17 -67 -15 -3 2 -13 0 -23 -6 -12 -6 -19 -6
-19 0 0 9 16 14 80 26 14 3 39 9 55 14 41 13 55 13 55 0z m468 -11 c17 -5 32
-13 32 -19 0 -5 -17 -2 -37 7 -21 9 -44 17 -50 17 -7 0 -13 5 -13 10 0 5 8 6
18 2 9 -4 32 -11 50 -17z m1042 18 c0 -3 -4 -8 -10 -11 -5 -3 -10 -1 -10 4 0
6 5 11 10 11 6 0 10 -2 10 -4z m420 0 c0 -11 -19 -15 -25 -6 -3 5 1 10 9 10 9
0 16 -2 16 -4z m-480 -23 c-142 -64 -203 -105 -284 -188 -67 -70 -146 -187
-187 -278 -26 -58 -29 -56 -85 53 -21 41 -41 77 -44 80 -4 3 -20 25 -37 50
-49 71 -150 167 -230 216 -76 48 -96 66 -40 38 129 -66 269 -209 352 -359 61
-109 50 -108 108 -7 66 114 86 140 177 232 75 75 150 126 239 161 57 22 79 24
31 2z m558 2 c17 -4 32 -11 32 -15 0 -9 -87 13 -98 26 -4 3 2 4 13 1 11 -3 35
-8 53 -12z m164 -41 c38 -9 67 -18 64 -21 -7 -7 -106 16 -141 33 -16 8 -22 12
-11 9 10 -3 50 -12 88 -21z m-2374 10 c-14 -13 -98 -32 -103 -23 -4 5 0 9 7
10 24 1 62 9 67 14 2 3 11 5 19 5 9 0 13 -3 10 -6z m-148 -39 c0 -6 -104 -34
-109 -30 -7 8 3 14 27 18 12 2 23 5 26 8 5 5 56 8 56 4z m2693 -15 c32 -7 56
-14 54 -17 -7 -7 -115 15 -135 27 -15 10 -15 10 3 6 11 -2 46 -10 78 -16z
m-2846 -25 c-55 -21 -142 -31 -133 -17 4 7 17 11 29 11 29 -2 98 9 105 16 3 3
12 5 21 4 9 0 -1 -7 -22 -14z m731 9 c-9 -8 -139 -10 -145 -1 -2 4 31 7 73 7
43 0 75 -3 72 -6z m1578 -1 c-8 -8 -137 -5 -145 3 -2 2 31 4 74 4 43 0 75 -3
71 -7z m-1881 -24 c-86 -14 -125 -17 -125 -8 0 8 10 10 82 13 15 1 30 4 33 8
3 3 16 3 28 0 18 -5 14 -7 -18 -13z m93 14 c-10 -2 -26 -2 -35 0 -10 3 -2 5
17 5 19 0 27 -2 18 -5z m295 0 c-7 -2 -21 -2 -30 0 -10 3 -4 5 12 5 17 0 24
-2 18 -5z m147 -31 c156 -57 306 -185 431 -369 27 -40 49 -77 49 -83 0 -5 5
-10 10 -10 6 0 10 4 10 8 0 19 123 191 173 242 90 93 197 170 277 199 19 8 53
20 75 28 22 8 64 16 95 18 l55 4 -65 -14 c-36 -8 -75 -16 -88 -19 -37 -8 -181
-83 -225 -118 -96 -75 -209 -206 -267 -311 -33 -60 -47 -69 -57 -39 -8 25 -93
151 -128 191 -99 114 -210 201 -320 251 -54 25 -52 24 -112 35 -24 4 -40 11
-38 15 6 9 54 -2 125 -28z m1464 30 c3 -5 -8 -6 -25 -4 -16 2 -29 6 -29 8 0 8
49 4 54 -4z m106 -7 c14 -1 39 -3 55 -4 19 -1 25 -4 18 -9 -15 -10 -164 8
-157 19 2 4 17 5 32 2 15 -3 38 -6 52 -8z m480 0 c14 -2 42 -4 63 -4 20 -1 37
-5 37 -10 0 -5 -21 -7 -47 -5 -57 5 -153 24 -153 30 0 4 28 1 100 -11z m360 9
c0 -8 -19 -13 -24 -6 -3 5 1 9 9 9 8 0 15 -2 15 -3z m-3520 -22 c0 -4 -13 -8
-30 -7 -16 0 -30 3 -30 7 0 5 14 8 30 8 17 0 30 -4 30 -8z m-110 -12 c-13 -8
-12 -10 5 -11 11 -1 25 -2 30 -4 6 -1 35 -3 65 -4 39 -2 49 -5 35 -10 -26 -11
-108 -3 -167 16 -27 8 -48 16 -48 19 0 2 21 4 48 4 34 0 43 -3 32 -10z m533 3
c-7 -2 -19 -2 -25 0 -7 3 -2 5 12 5 14 0 19 -2 13 -5z m340 0 c-13 -2 -33 -2
-45 0 -13 2 -3 4 22 4 25 0 35 -2 23 -4z m157 3 c0 -8 -60 -12 -72 -4 -8 4 4
8 30 8 23 0 42 -2 42 -4z m175 -42 c185 -76 291 -174 380 -353 50 -99 43 -120
-9 -30 -28 47 -69 98 -107 132 -64 59 -196 130 -261 142 -21 4 -38 11 -38 16
0 13 2 12 93 -23 98 -37 169 -82 231 -143 49 -48 56 -50 29 -7 -44 68 -121
144 -188 187 -49 32 -136 74 -165 80 -8 2 -17 4 -20 5 -3 1 -9 3 -15 4 -54 10
-85 20 -85 26 0 9 102 -14 155 -36z m1247 38 c-12 -8 -72 -4 -72 4 0 2 19 4
43 4 25 0 37 -4 29 -8z m141 1 c-13 -2 -35 -2 -50 0 -16 2 -5 4 22 4 28 0 40
-2 28 -4z m320 0 c-7 -2 -19 -2 -25 0 -7 3 -2 5 12 5 14 0 19 -2 13 -5z m567
-7 c-41 -23 -201 -39 -218 -22 -3 3 17 6 44 6 72 0 128 11 112 21 -8 5 6 9 37
8 48 0 49 0 25 -13z m-3040 -7 c0 -3 -11 -9 -25 -11 -25 -5 -35 7 -12 15 19 6
37 4 37 -4z m43 4 c-7 -2 -19 -2 -25 0 -7 3 -2 5 12 5 14 0 19 -2 13 -5z m306
3 c-3 -3 -23 -8 -45 -12 -21 -3 -56 -9 -76 -14 -20 -4 -40 -5 -43 -1 -4 3 17
11 47 16 62 13 124 18 117 11z m1531 -5 c0 -5 -18 -12 -41 -16 -37 -7 -136
-48 -184 -78 -30 -18 -120 -91 -123 -99 -2 -5 -9 -8 -15 -8 -22 1 91 95 154
129 56 30 181 80 202 81 4 0 7 -4 7 -9z m43 2 c-7 -2 -19 -2 -25 0 -7 3 -2 5
12 5 14 0 19 -2 13 -5z m344 -7 c8 -8 -24 -6 -62 5 -26 7 -24 7 13 5 23 -2 46
-6 49 -10z m368 0 c11 -3 48 -5 83 -5 35 -1 61 -4 58 -9 -5 -8 -45 -8 -157 2
-101 9 -160 26 -69 20 36 -2 74 -6 85 -8z m-2695 -6 c0 -5 -11 -10 -25 -10
-14 0 -25 5 -25 10 0 6 11 10 25 10 14 0 25 -4 25 -10z m2398 0 c7 0 11 -4 8
-8 -7 -12 -66 -2 -66 10 0 6 10 8 23 4 12 -3 28 -6 35 -6z m-2958 -15 c19 -7
30 -14 23 -14 -6 -1 -23 3 -36 8 -14 6 -27 7 -30 5 -6 -6 33 -105 75 -191 18
-38 37 -63 47 -64 12 0 13 -2 2 -6 -25 -10 -63 54 -117 196 -13 35 -24 67 -24
72 0 12 18 10 60 -6z m486 6 c-19 -7 -96 -4 -105 5 -2 2 25 4 60 3 40 0 57 -3
45 -8z m3344 0 c0 -16 -57 -164 -79 -208 -26 -49 -45 -67 -63 -60 -8 4 -7 6 4
6 18 1 81 122 108 206 15 47 15 51 -8 47 -15 -2 -15 -1 -2 7 19 13 40 14 40 2z
m-3095 -11 c3 -5 -1 -10 -10 -10 -9 0 -13 5 -10 10 3 6 8 10 10 10 2 0 7 -4
10 -10z m48 3 c-7 -2 -19 -2 -25 0 -7 3 -2 5 12 5 14 0 19 -2 13 -5z m2230 0
c-7 -2 -19 -2 -25 0 -7 3 -2 5 12 5 14 0 19 -2 13 -5z m57 -9 c0 -2 -9 -4 -20
-4 -11 0 -20 4 -20 9 0 5 9 7 20 4 11 -3 20 -7 20 -9z m700 7 c0 -10 -23 -16
-95 -27 -22 -3 -42 -7 -45 -9 -3 -2 -12 0 -19 4 -11 7 35 17 121 26 10 1 21 5
25 8 9 9 13 9 13 -2z m-3650 -17 c27 -4 47 -10 45 -14 -3 -4 -22 -4 -42 1 -21
4 -39 8 -40 9 -2 0 -12 0 -23 0 -11 0 -20 5 -20 11 0 6 7 9 15 5 8 -3 37 -8
65 -12z m576 3 c4 -4 -5 -7 -20 -7 -15 0 -25 4 -22 9 7 10 31 9 42 -2z m2419
3 c3 -5 -3 -10 -15 -10 -12 0 -18 5 -15 10 3 6 10 10 15 10 5 0 12 -4 15 -10z
m-2475 -8 c0 -4 -10 -8 -22 -8 -13 -1 -32 -2 -43 -4 -41 -5 -58 3 -20 10 58
10 85 11 85 2z m2583 -2 c17 0 27 -3 24 -7 -11 -10 -100 -4 -112 8 -7 9 -1 10
24 5 18 -3 47 -6 64 -6z m-2970 -17 c-13 -2 -33 -2 -45 0 -13 2 -3 4 22 4 25
0 35 -2 23 -4z m230 0 c-13 -2 -35 -2 -50 0 -16 2 -5 4 22 4 28 0 40 -2 28 -4z
m2860 0 c-13 -2 -33 -2 -45 0 -13 2 -3 4 22 4 25 0 35 -2 23 -4z m220 0 c-13
-2 -33 -2 -45 0 -13 2 -3 4 22 4 25 0 35 -2 23 -4z m-2346 -29 c-9 -9 -116
-11 -130 -2 -6 4 21 8 62 8 41 0 72 -3 68 -6z m1466 -2 c-13 -8 -132 -6 -141
3 -3 3 30 5 74 5 43 0 74 -4 67 -8z m-1693 -12 c0 -5 -8 -10 -17 -10 -15 0
-16 2 -3 10 19 12 20 12 20 0z m53 3 c-7 -2 -19 -2 -25 0 -7 3 -2 5 12 5 14 0
19 -2 13 -5z m240 0 c-7 -2 -19 -2 -25 0 -7 3 -2 5 12 5 14 0 19 -2 13 -5z
m57 -9 c0 -2 -7 -4 -15 -4 -8 0 -15 4 -15 10 0 5 7 7 15 4 8 -4 15 -8 15 -10z
m1120 6 c0 -5 -5 -10 -11 -10 -5 0 -7 5 -4 10 3 6 8 10 11 10 2 0 4 -4 4 -10z
m53 3 c-7 -2 -19 -2 -25 0 -7 3 -2 5 12 5 14 0 19 -2 13 -5z m240 0 c-7 -2
-19 -2 -25 0 -7 3 -2 5 12 5 14 0 19 -2 13 -5z m57 -9 c0 -2 -7 -4 -15 -4 -8
0 -15 4 -15 10 0 5 7 7 15 4 8 -4 15 -8 15 -10z m-1865 -3 c-6 -5 -41 -12 -80
-15 l-70 -5 65 13 c84 17 96 18 85 7z m1485 1 c0 -5 -6 -9 -12 -10 -20 -1 -50
-9 -83 -22 -16 -6 -26 -8 -21 -3 10 10 87 42 104 42 6 1 12 -3 12 -7z m430 -4
c0 -11 -28 -10 -35 1 -3 6 4 9 15 8 11 -1 20 -5 20 -9z m109 -14 c9 -8 -65 -2
-84 7 -13 6 -4 7 30 3 28 -4 52 -8 54 -10z m71 -10 c0 -2 -12 -4 -26 -4 -14 0
-23 4 -20 9 6 8 46 4 46 -5z m-2886 -15 c-3 -5 -1 -9 5 -9 5 0 11 3 14 8 2 4
2 2 1 -5 -2 -6 2 -14 9 -16 7 -2 -1 -2 -18 1 -44 6 -71 22 -55 32 16 10 52 1
44 -11z m556 9 c0 -4 -12 -8 -26 -8 -14 0 -23 4 -20 8 2 4 14 8 25 8 12 0 21
-4 21 -8z m68 5 c-10 -2 -26 -2 -35 0 -10 3 -2 5 17 5 19 0 27 -2 18 -5z
m2338 -6 c4 -4 -7 -7 -25 -7 -18 0 -30 4 -27 8 6 10 42 9 52 -1z m554 -1 c0
-8 -8 -17 -17 -20 -31 -8 -89 -16 -73 -10 8 4 22 12 30 19 8 7 24 15 35 18 11
2 21 5 23 6 1 0 2 -5 2 -13z m-3330 -6 c8 -5 -20 -8 -64 -7 -42 0 -79 4 -82 9
-7 10 129 8 146 -2z m285 0 c-2 -4 -39 -7 -82 -7 -53 -1 -70 1 -53 7 27 9 140
9 135 0z m1675 3 c0 -5 -28 -21 -61 -38 -34 -16 -89 -56 -122 -88 -65 -63 -86
-72 -34 -16 43 47 101 91 162 122 58 30 55 29 55 20z m1007 -7 c4 -4 -28 -6
-70 -5 -43 2 -81 7 -84 12 -6 10 144 3 154 -7z m291 9 c-10 -11 -168 -17 -168
-8 0 5 39 10 87 12 49 1 85 -1 81 -4z m-3205 -12 c-7 -2 -19 -2 -25 0 -7 3 -2
5 12 5 14 0 19 -2 13 -5z m64 1 c-3 -3 -12 -4 -19 -1 -8 3 -5 6 6 6 11 1 17
-2 13 -5z m2896 -1 c-7 -2 -19 -2 -25 0 -7 3 -2 5 12 5 14 0 19 -2 13 -5z m64
1 c-3 -3 -12 -4 -19 -1 -8 3 -5 6 6 6 11 1 17 -2 13 -5z m-3062 -48 c25 -6
-56 1 -107 10 -21 4 -38 10 -38 14 0 7 86 -7 145 -24z m3205 25 c0 -9 -51 -21
-120 -26 -32 -3 -22 1 35 14 44 11 81 19 83 20 1 1 2 -3 2 -8z m-3120 -37 c0
-2 -11 -4 -25 -4 -14 0 -25 4 -25 9 0 4 11 6 25 3 14 -2 25 -6 25 -8z m1673
-6 c-39 -44 -71 -101 -66 -116 5 -11 3 -13 -7 -7 -9 6 -11 4 -6 -4 5 -7 2 -20
-6 -29 -8 -9 -23 -34 -33 -55 -11 -21 -22 -32 -24 -26 -9 28 125 259 151 259
6 0 2 -10 -9 -22z m1267 12 c0 -5 -12 -10 -27 -9 l-28 1 25 8 c14 4 26 8 28 9
1 1 2 -3 2 -9z m-2770 -20 c123 -17 127 -18 47 -14 -48 3 -98 8 -110 10 -12 3
-39 5 -60 5 -21 0 -35 4 -32 10 4 5 9 9 13 8 4 0 68 -9 142 -19z m2710 10 c0
-5 -9 -10 -20 -10 -11 0 -20 5 -20 10 0 6 9 10 20 10 11 0 20 -4 20 -10z m-52
-5 c-11 -11 -236 -31 -227 -21 4 4 42 9 85 12 44 3 81 7 83 10 2 2 18 4 34 4
17 0 28 -2 25 -5z m-2428 -30 c85 -3 101 -6 95 -15 -7 -12 -275 -9 -275 3 0 5
18 7 40 4 26 -3 44 0 51 10 8 8 20 11 33 6 12 -3 37 -7 56 -8z m2271 -7 c43 0
79 -3 79 -7 0 -9 -347 -8 -356 2 -4 4 8 8 27 9 19 1 53 2 77 3 23 1 45 5 48 8
4 3 15 2 26 -4 11 -6 55 -11 99 -11z m-2461 -7 c0 -3 -70 -7 -155 -7 -85 0
-155 2 -155 5 0 3 70 7 155 7 85 1 155 -1 155 -5z m2778 -6 c3 -2 -48 -3 -112
-2 -64 1 -116 5 -116 8 0 7 221 2 228 -6z m27 5 c3 -5 1 -10 -4 -10 -6 0 -11
5 -11 10 0 6 2 10 4 10 3 0 8 -4 11 -10z m-3292 -7 c-13 -2 -33 -2 -45 0 -13
2 -3 4 22 4 25 0 35 -2 23 -4z m84 1 c-3 -3 -12 -4 -19 -1 -8 3 -5 6 6 6 11 1
17 -2 13 -5z m71 -1 c-10 -2 -28 -2 -40 0 -13 2 -5 4 17 4 22 1 32 -1 23 -4z
m3225 0 c-7 -2 -21 -2 -30 0 -10 3 -4 5 12 5 17 0 24 -2 18 -5z m74 1 c-3 -3
-12 -4 -19 -1 -8 3 -5 6 6 6 11 1 17 -2 13 -5z m46 -1 c-7 -2 -19 -2 -25 0 -7
3 -2 5 12 5 14 0 19 -2 13 -5z"/>
<path d="M2805 703 l-17 -28 23 22 c12 12 20 25 17 28 -3 3 -13 -7 -23 -22z"/>
</g>
</svg>
