<?xml version="1.0" encoding="iso-8859-1"?>
<!-- Generator: Adobe Illustrator 19.0.0, SVG Export Plug-In . SVG Version: 6.00 Build 0)  -->
<svg version="1.1" id="Layer_1" xmlns="http://www.w3.org/2000/svg" xmlns:xlink="http://www.w3.org/1999/xlink" x="0px" y="0px"
	 viewBox="0 0 454 454" style="enable-background:new 0 0 454 454;" xml:space="preserve">
<g>
	<path style="fill:#EFEFEF;" d="M341.613,92.5l6.429,11.822c1.797,3.304,2.708,6.896,2.708,10.678c0,12.406-10.094,22.5-22.5,22.5
		s-22.5-10.094-22.5-22.5c0-3.78,0.91-7.377,2.704-10.69l6.396-11.81H177.113l6.429,11.822c1.797,3.304,2.708,6.896,2.708,10.678
		c0,12.406-10.094,22.5-22.5,22.5s-22.5-10.094-22.5-22.5c0-3.78,0.91-7.377,2.704-10.69l6.396-11.81H46v280h400v-280H341.613z"/>
	<path style="fill:#3E81C8;" d="M328.25,92.5c-12.406,0-22.5,10.094-22.5,22.5s10.094,22.5,22.5,22.5s22.5-10.094,22.5-22.5
		S340.656,92.5,328.25,92.5z"/>
	<path style="fill:#3E81C8;" d="M163.75,92.5c-12.406,0-22.5,10.094-22.5,22.5s10.094,22.5,22.5,22.5s22.5-10.094,22.5-22.5
		S176.156,92.5,163.75,92.5z"/>
	<polygon style="fill:#F8A805;" points="46,372.5 46,131.5 8,131.5 8,411.5 408,411.5 408,372.5 	"/>
	<rect x="91" y="177.5" style="fill:#3E81C8;" width="310" height="142.5"/>
	<g>
		<path d="M446,84.5H339V66.75c0-17.78-14.47-32.25-32.26-32.25h-0.49C288.47,34.5,274,48.97,274,66.75V84.5H171V66.75
			c0-17.78-14.47-32.25-32.26-32.25h-0.49C120.47,34.5,106,48.97,106,66.75V84.5H46c-4.42,0-8,3.58-8,8v31H8c-4.42,0-8,3.58-8,8v280
			c0,4.42,3.58,8,8,8h400c4.42,0,8-3.58,8-8v-31h30c4.42,0,8-3.58,8-8v-280C454,88.08,450.42,84.5,446,84.5z M342.75,115
			c0,8-6.51,14.5-14.5,14.5c-8,0-14.5-6.5-14.5-14.5s6.5-14.5,14.5-14.5C336.24,100.5,342.75,107,342.75,115z M290,66.75
			c0-8.96,7.29-16.25,16.25-16.25h0.49c8.97,0,16.26,7.29,16.26,16.25V84.5h-33V66.75z M163.75,100.5c7.99,0,14.5,6.5,14.5,14.5
			s-6.51,14.5-14.5,14.5c-8,0-14.5-6.5-14.5-14.5S155.75,100.5,163.75,100.5z M122,66.75c0-8.96,7.29-16.25,16.25-16.25h0.49
			c8.97,0,16.26,7.29,16.26,16.25V84.5h-33V66.75z M400,403.5H16v-264h22v233c0,4.42,3.58,8,8,8h354V403.5z M438,364.5H54v-264
			h82.92c-2.34,4.32-3.67,9.25-3.67,14.5c0,16.82,13.68,30.5,30.5,30.5s30.5-13.68,30.5-30.5c0-5.25-1.33-10.18-3.68-14.5h110.85
			c-2.34,4.32-3.67,9.25-3.67,14.5c0,16.82,13.68,30.5,30.5,30.5s30.5-13.68,30.5-30.5c0-5.25-1.33-10.18-3.68-14.5H438V364.5z"/>
		<path d="M401,169.5H91c-4.42,0-8,3.58-8,8V320c0,4.42,3.58,8,8,8h310c4.42,0,8-3.58,8-8V177.5C409,173.08,405.42,169.5,401,169.5z
			 M134.66,312H99v-31.5h35.66V312z M134.66,264.5H99V233h35.66V264.5z M134.66,217H99v-31.5h35.66V217z M186.33,312h-35.67v-31.5
			h35.67V312z M186.33,264.5h-35.67V233h35.67V264.5z M186.33,217h-35.67v-31.5h35.67V217z M238,312h-35.67v-31.5H238V312z
			 M238,264.5h-35.67V233H238V264.5z M238,217h-35.67v-31.5H238V217z M289.66,312H254v-31.5h35.66V312z M289.66,264.5H254V233h35.66
			V264.5z M289.66,217H254v-31.5h35.66V217z M341.33,312h-35.67v-31.5h35.67L341.33,312L341.33,312z M341.33,264.5h-35.67V233h35.67
			L341.33,264.5L341.33,264.5z M341.33,217h-35.67v-31.5h35.67L341.33,217L341.33,217z M393,312h-35.67v-31.5H393V312z M393,264.5
			h-35.67V233H393V264.5z M393,217h-35.67v-31.5H393V217z"/>
	</g>
</g>
<g>
</g>
<g>
</g>
<g>
</g>
<g>
</g>
<g>
</g>
<g>
</g>
<g>
</g>
<g>
</g>
<g>
</g>
<g>
</g>
<g>
</g>
<g>
</g>
<g>
</g>
<g>
</g>
<g>
</g>
</svg>
