
<svg width="1400" height="702" viewBox="0 0 1400 702" fill="none" xmlns="http://www.w3.org/2000/svg">
<g opacity="0.6">
<mask id="mask0_208_196" style="mask-type:alpha" maskUnits="userSpaceOnUse" x="0" y="-61" width="1400" height="763">
<rect y="-61" width="1400" height="763" fill="#855BFE"/>
</mask>
<g mask="url(#mask0_208_196)">
<path d="M1540.19 448.046C1434.15 353.467 1324.18 238.54 1150.07 243.555C1080.36 245.561 1016.05 270.209 947.487 230.371C869.922 185.231 811.503 103.263 751.774 49.6685C712.992 14.8463 681.246 -1.77663 616.281 -9.80149C531.352 -20.2625 453.787 -46.9165 379.659 -88.1873C377.695 -88.044 376.55 -88.044 374.586 -88.044C449.205 -44.6237 528.08 -17.3965 614.481 -6.50557C674.209 1.08939 703.828 19.2887 742.447 56.1171C800.866 111.861 862.395 196.122 939.796 239.686C1005.74 276.801 1064.49 250.004 1142.05 254.446C1315.18 264.334 1439.06 404.196 1545.92 498.201C1543.95 481.722 1542.15 464.812 1540.19 448.046Z" fill="url(#paint0_linear_208_196)"/>
<path d="M1562.44 614.419C1491.1 557.528 1428.1 495.909 1367.39 430.42C1318.46 377.685 1255.95 326.813 1182.15 302.882C1127.49 285.113 1064.49 277.374 1007.05 281.387C946.669 285.686 910.177 297.58 868.613 265.194C801.03 212.316 740.483 106.416 658.009 31.3261C625.118 1.37614 600.245 3.09576 555.898 -0.630074C492.079 -6.07552 440.205 -22.8418 385.386 -52.3618C383.095 -52.0752 381.786 -51.9319 379.495 -51.6453C433.987 -20.5489 484.388 -3.3528 548.698 2.52255C591.572 6.39168 612.517 7.39479 644.263 36.3416C726.901 111.575 741.465 176.204 857.485 277.518C895.286 310.62 947.978 291.418 999.688 290.271C1062.85 288.838 1130.27 304.458 1185.58 332.259C1257.75 368.514 1316 426.408 1365.59 483.871C1427.44 555.665 1496.82 619.721 1574.88 678.188C1570.46 656.836 1566.37 635.627 1562.44 614.419Z" fill="url(#paint1_linear_208_196)"/>
<path d="M1615.95 820.199C1517.28 756.287 1424.33 688.505 1353.15 599.945C1291.78 523.566 1225.51 443.03 1141.89 383.704C1086.25 344.153 1022.43 321.511 951.087 317.212C899.704 314.059 844.394 323.517 798.248 298.726C709.064 250.863 642.79 56.1171 552.298 20.1485C520.879 7.68127 481.606 18.2856 448.223 11.4071C366.404 -5.50245 298.493 -69.2715 240.238 -117.994C238.11 -117.851 236.965 -117.851 234.838 -117.707C290.148 -69.1282 359.204 1.66261 440.369 16.9958C472.115 22.8712 507.788 11.2638 536.916 26.1671C629.863 73.5998 679.282 262.614 789.575 310.763C836.539 331.255 896.922 320.078 947.65 328.103C1025.22 340.427 1089.2 379.261 1143.36 427.984C1226.49 502.787 1290.8 591.347 1361.66 674.605C1438.08 764.168 1540.02 837.968 1641.97 904.03C1633.46 876.087 1624.95 848.143 1615.95 820.199Z" fill="url(#paint2_linear_208_196)"/>
<path d="M334.658 11.9806C291.457 -17.1096 254.311 -53.0782 217.328 -88.0437C214.874 -87.7571 213.564 -87.6138 211.11 -87.3272C250.056 -48.3493 289.166 -6.93521 336.13 24.8777C352.331 35.9118 373.767 50.9585 395.859 48.0925C402.731 47.2327 408.459 43.5068 414.186 40.3542C411.568 40.6408 408.786 40.9274 405.841 40.9274C379.658 41.9305 354.131 25.021 334.658 11.9806Z" fill="url(#paint3_linear_208_196)"/>
<path d="M1705.14 1106.8C1583.39 1041.6 1470.97 964.79 1386.86 862.473C1351.51 819.483 1325.17 771.763 1292.44 727.197C1249.57 668.873 1212.91 610.12 1158.42 545.491C1090.18 464.526 1028.82 415.373 938.978 374.532C851.431 334.838 788.266 345.586 750.629 340.857C640.336 326.813 582.08 131.637 486.515 49.2386C464.915 30.6095 456.078 30.0363 435.623 36.1982C451.333 39.6375 464.587 55.114 473.588 64.7152C576.353 173.481 626.918 354.614 738.847 352.894C806.43 351.891 865.176 366.651 917.05 392.158C1032.74 448.906 1110.96 545.634 1190 664.717C1235.98 734.075 1266.26 777.066 1304.55 837.825C1340.22 894.286 1370.49 950.03 1417.62 1000.47C1506.48 1095.34 1622.01 1158.1 1743.1 1216.57C1730.01 1180.17 1717.41 1143.49 1705.14 1106.8Z" fill="url(#paint4_linear_208_196)"/>
<path d="M299.966 66.1481C257.911 32.9022 223.547 -8.65511 188.692 -47.3464C185.746 -46.9165 184.437 -46.6299 181.491 -46.2C215.692 -5.35918 249.238 37.3446 288.839 74.4596C293.912 79.1885 303.894 88.3598 312.73 94.9517C323.694 103.263 337.112 90.366 338.912 85.4938C324.349 87.0701 310.603 74.4596 299.966 66.1481Z" fill="url(#paint5_linear_208_196)"/>
<path d="M1836.54 1487.12C1733.94 1407.3 1612.19 1355.14 1497.31 1290.8C1440.53 1258.99 1391.28 1223.02 1352.66 1174.15C1310.28 1120.56 1280 1057.79 1247.76 999.182C1175.76 868.492 1097.54 717.309 1025.22 610.693C970.56 530.014 859.449 387.573 736.556 387.859C661.773 388.003 626.918 408.065 569.807 339.853C503.861 261.038 428.75 93.0888 390.622 67.8678C376.877 58.8398 358.222 64.2852 354.294 75.3194C383.259 66.2914 393.568 116.59 536.916 345.299C597.135 441.167 633.627 401.76 712.664 403.622C822.303 406.345 936.85 570.282 987.906 645.372C1051.56 739.091 1137.8 934.124 1212.58 1069.11C1260.53 1155.67 1308.97 1247.38 1391.77 1312.73C1476.7 1379.79 1578.32 1428.37 1670.28 1487.55C1749.48 1538.57 1815.59 1598.9 1880.89 1662.95C1866.81 1604.2 1853.07 1545.45 1836.54 1487.12Z" fill="url(#paint6_linear_208_196)"/>
</g>
</g>
<defs>
<linearGradient id="paint0_linear_208_196" x1="1065.57" y1="290.025" x2="583.216" y2="-349.842" gradientUnits="userSpaceOnUse">
<stop stop-color="#675ADC"/>
<stop offset="1" stop-color="#E480FF"/>
</linearGradient>
<linearGradient id="paint1_linear_208_196" x1="1016.15" y1="327.282" x2="533.792" y2="-312.585" gradientUnits="userSpaceOnUse">
<stop stop-color="#675ADC"/>
<stop offset="1" stop-color="#E480FF"/>
</linearGradient>
<linearGradient id="paint2_linear_208_196" x1="950.517" y1="376.756" x2="468.161" y2="-263.111" gradientUnits="userSpaceOnUse">
<stop stop-color="#675ADC"/>
<stop offset="1" stop-color="#E480FF"/>
</linearGradient>
<linearGradient id="paint3_linear_208_196" x1="810.109" y1="482.602" x2="327.754" y2="-157.264" gradientUnits="userSpaceOnUse">
<stop stop-color="#675ADC"/>
<stop offset="1" stop-color="#E480FF"/>
</linearGradient>
<linearGradient id="paint4_linear_208_196" x1="896.169" y1="417.725" x2="413.814" y2="-222.142" gradientUnits="userSpaceOnUse">
<stop stop-color="#675ADC"/>
<stop offset="1" stop-color="#E480FF"/>
</linearGradient>
<linearGradient id="paint5_linear_208_196" x1="752.168" y1="526.279" x2="269.813" y2="-113.587" gradientUnits="userSpaceOnUse">
<stop stop-color="#675ADC"/>
<stop offset="1" stop-color="#E480FF"/>
</linearGradient>
<linearGradient id="paint6_linear_208_196" x1="772.406" y1="509.256" x2="289.622" y2="-131.179" gradientUnits="userSpaceOnUse">
<stop stop-color="#675ADC"/>
<stop offset="1" stop-color="#E480FF"/>
</linearGradient>
</defs>
</svg>
